<svg width="2652" height="547" viewBox="0 0 2652 547" fill="none" xmlns="http://www.w3.org/2000/svg">
<g opacity="0.3">
<path d="M1014.67 547.002C1005.2 547.002 995.983 546.555 987.124 545.664C968.543 543.792 951.377 539.951 936.102 534.245C919.684 528.114 905.284 519.76 893.299 509.416C869.212 488.624 857.161 463.725 845.506 439.644C843.216 434.916 840.849 430.027 838.445 425.283C822.045 392.949 801.255 364.627 774.892 338.697C722.303 286.972 648.344 242.828 561.009 211.039C460.006 174.276 351.412 155.963 255.228 159.474C198.696 161.539 124.001 181.173 90.6179 214.704C70.8066 234.604 69.2091 256.688 86.0013 278.565L85.6678 278.657C76.8632 267.184 73.027 255.682 74.2691 244.47C75.4086 234.186 80.802 224.132 90.3028 214.589C105.413 199.411 130.332 185.959 162.367 175.685C191.968 166.193 224.937 160.357 255.206 159.252C305.542 157.416 359.077 161.491 414.323 171.366C464.403 180.319 513.82 193.602 561.199 210.847C648.586 242.654 722.589 286.822 775.208 338.578C801.585 364.525 822.386 392.863 838.797 425.214C841.204 429.958 843.571 434.85 845.857 439.578C857.502 463.641 869.545 488.523 893.6 509.284C916.862 529.365 948.351 541.529 987.186 545.439C1040.97 550.854 1106.27 539.528 1161.88 515.14C1242.01 479.995 1297.62 428.84 1351.41 379.371C1360.84 370.7 1370.58 361.734 1380.23 353.076C1405.29 330.594 1439.22 301.461 1479.55 275.507C1520.77 248.979 1562.65 229.488 1607.6 215.919C1635.12 207.613 1664.28 202.017 1694.27 199.288C1721.97 196.765 1751.3 196.609 1781.43 198.819C1833.11 202.612 1888.78 213.326 1951.64 231.571C2075.42 267.499 2199.05 311.108 2319.12 361.188C2433.25 408.788 2545.18 462.651 2651.8 521.275L2651.55 521.438C2430.53 399.912 2194.99 302.454 1951.48 231.769C1813.91 191.834 1704.69 186.859 1607.77 216.115C1509.17 245.877 1440.29 299.588 1380.54 353.197C1370.89 361.853 1361.14 370.819 1351.72 379.49C1297.92 428.977 1242.29 480.147 1162.1 515.316C1136.19 526.681 1107.04 535.546 1077.8 540.95C1062.36 543.806 1047 545.672 1032.17 546.5C1026.25 546.837 1020.41 547.002 1014.67 547.002Z" fill="#FFE492"/>
<path d="M1023.93 534.672C999.781 534.672 977.408 531.91 957.414 526.457C935.118 520.377 915.878 510.955 900.226 498.456C898.841 497.348 897.466 496.204 896.14 495.05C872.309 474.349 859.723 449.773 847.555 426.005C845.093 421.202 842.55 416.233 839.971 411.412C824.607 382.707 806.108 357.406 783.409 334.07C780.613 331.197 777.719 328.318 774.799 325.513C721.436 274.233 646.877 230.648 559.182 199.471C457.45 163.335 348.548 145.78 252.536 150.039C196.414 152.555 122.064 172.511 88.5382 205.784C68.463 225.709 66.1914 247.836 81.9613 269.777L81.6242 269.865C73.3582 258.366 69.9617 246.841 71.5335 235.617C72.9771 225.308 78.5904 215.232 88.2231 205.67C103.487 190.518 128.333 177.05 160.067 166.723C189.398 157.178 222.224 151.175 252.503 149.819C302.777 147.589 356.371 151.274 411.793 160.771C461.994 169.374 511.645 182.331 559.365 199.281C647.111 230.477 721.711 274.088 775.106 325.397C778.027 328.203 780.925 331.085 783.721 333.96C806.434 357.312 824.945 382.625 840.315 411.346C842.898 416.167 845.441 421.135 847.903 425.941C860.068 449.694 872.643 474.252 896.441 494.925C897.763 496.074 899.137 497.219 900.519 498.324C932.865 524.161 977.309 534.672 1024.05 534.672C1024.3 534.672 1024.56 534.672 1024.81 534.672C1024.52 534.67 1024.23 534.672 1023.93 534.672ZM1033.9 534.518C1077.36 533.178 1122.19 523.146 1160.66 508.223C1243.63 475.901 1303.26 425.978 1360.93 377.701C1363.31 375.711 1365.68 373.725 1368.06 371.739C1373.27 367.381 1379.45 362.221 1385.76 357.019C1414.06 333.691 1448.32 306.549 1487.77 282.118C1529.74 256.122 1571.68 236.832 1615.97 223.142C1643.18 214.739 1671.94 208.82 1701.44 205.549C1728.78 202.517 1757.67 201.661 1787.3 203.002C1838.49 205.32 1893.53 214.107 1955.57 229.869C2016.06 245.212 2065.78 259.656 2112.05 275.323C2177.59 297.539 2240.02 323.136 2292.45 345.244C2414.34 396.791 2533.93 455.322 2647.91 519.214L2647.66 519.375C2533.69 455.492 2414.11 396.965 2292.24 345.424C2239.82 323.319 2177.4 297.726 2111.87 275.516C2065.62 259.854 2015.91 245.415 1955.43 230.076C1820.29 195.739 1712.47 193.597 1616.14 223.34C1516.15 254.242 1444.95 308.614 1386.06 357.151C1379.74 362.353 1373.57 367.511 1368.35 371.872C1365.98 373.855 1363.6 375.843 1361.23 377.833C1303.54 426.126 1243.89 476.066 1160.85 508.412C1140.27 516.399 1118.36 522.743 1095.74 527.267C1074.68 531.474 1053.92 533.906 1033.9 534.518Z" fill="#FFE492"/>
<path d="M1034.15 522.625C1031.24 522.625 1028.35 522.587 1025.49 522.51C1001.36 521.869 979.024 518.543 959.113 512.619C937.338 506.141 918.472 496.545 903.043 484.097C901.672 482.987 900.306 481.84 898.987 480.687C875.423 460.086 862.314 435.839 849.64 412.392C846.998 407.505 844.265 402.451 841.495 397.546C825.373 368.937 806.386 343.84 783.442 320.818C780.602 317.972 777.664 315.117 774.699 312.334C720.563 261.501 645.403 218.475 557.35 187.909C454.893 152.402 345.683 135.601 249.839 140.609C195.876 143.473 121.741 162.29 86.4935 196.834C66.1288 216.791 63.1646 238.979 77.9196 260.996L77.5789 261.078C69.8478 249.543 66.8983 237.992 68.8035 226.748C70.5549 216.406 76.4027 206.304 86.182 196.719C101.608 181.603 126.373 168.13 157.803 157.755C186.858 148.164 219.534 141.998 249.806 140.391C300.022 137.769 353.674 141.063 409.268 150.181C459.594 158.436 509.476 171.065 557.533 187.72C645.638 218.306 720.838 261.355 775.007 312.217C777.971 315.002 780.914 317.857 783.753 320.708C806.708 343.743 825.706 368.856 841.835 397.48C844.605 402.387 847.339 407.441 849.98 412.328C862.651 435.761 875.75 459.992 899.284 480.568C900.603 481.721 901.962 482.866 903.332 483.971C966.027 534.554 1077.14 529.123 1159.43 501.304C1245.87 471.831 1310.1 422.844 1372.22 375.471L1372.86 374.984C1378.87 370.392 1385.1 365.646 1391.29 360.96C1456.63 311.517 1528.45 260.706 1624.33 230.36C1651.25 221.859 1679.62 215.616 1708.63 211.805C1735.62 208.261 1764.07 206.705 1793.19 207.18C1843.97 208.008 1898.37 214.872 1959.51 228.163C2023.76 242.082 2072.12 254.877 2116.29 269.65C2179.23 290.741 2240.19 317.393 2293.98 340.908C2413.74 393.544 2531.51 452.84 2644.03 517.143L2643.77 517.302C2531.27 453.005 2413.51 393.716 2293.76 341.084C2239.98 317.573 2179.03 290.926 2116.11 269.841C2071.95 255.073 2023.62 242.283 1959.39 228.368C1826.86 199.557 1720.45 200.25 1624.5 230.552C1528.68 260.878 1456.89 311.667 1391.57 361.092C1385.38 365.778 1379.16 370.527 1373.14 375.117L1372.51 375.603C1341.55 399.21 1309.54 423.621 1274.97 445.425C1236.13 469.929 1198.39 488.268 1159.61 501.492C1119.03 515.206 1074.83 522.625 1034.15 522.625Z" fill="#FFE492"/>
<path d="M2639.89 515.226C2528.85 450.515 2412.91 390.464 2295.29 336.743C2290.31 334.484 2285.32 332.214 2280.31 329.938C2229.37 306.776 2176.69 282.825 2120.36 264.166C2065.71 246.115 2010.32 235.078 1963.35 226.662C1833.69 203.288 1728.69 206.817 1632.88 237.763C1534.54 269.626 1458.33 322.526 1397.1 365.034C1393.43 367.586 1389.76 370.141 1386.09 372.699C1383.37 374.588 1380.66 376.477 1377.94 378.363C1343.08 402.592 1311.37 424.253 1276.33 444.019C1236.3 466.598 1197.72 483.134 1158.37 494.575C1121.5 505.298 1082.1 510.971 1045.46 510.973C1038.79 510.973 1032.21 510.786 1025.75 510.405C1002.15 509.016 980.306 505.113 960.82 498.804C939.558 491.92 921.066 482.142 905.849 469.739C904.49 468.628 903.134 467.478 901.822 466.323C878.537 445.83 864.918 421.924 851.75 398.805C848.914 393.826 845.979 388.675 843.011 383.675C826.12 355.157 806.642 330.26 783.471 307.559C780.587 304.735 777.601 301.906 774.596 299.148C719.684 248.761 643.926 206.295 555.517 176.339C452.335 141.459 342.821 125.417 247.146 131.167C181.739 135.176 114.856 158.479 84.4962 187.834C63.8128 207.834 60.1451 230.092 73.8815 252.202L73.5371 252.279C66.3446 240.702 63.8384 229.116 66.0881 217.843C68.1583 207.464 74.2479 197.329 84.1847 187.718C99.7715 172.645 124.456 159.173 155.571 148.761C184.348 139.13 216.855 132.803 247.109 130.949C297.266 127.934 350.973 130.837 406.74 139.577C457.186 147.484 507.306 159.787 555.7 176.145C644.165 206.119 719.962 248.609 774.908 299.027C777.916 301.787 780.902 304.618 783.786 307.443C806.972 330.156 826.457 355.067 843.359 383.598C846.327 388.6 849.262 393.749 852.098 398.73C865.259 421.836 878.871 445.727 902.126 466.195C903.438 467.349 904.79 468.496 906.146 469.605C971.596 522.953 1082.84 516.289 1158.21 494.375C1248.14 468.227 1316.95 420.409 1377.67 378.218C1380.38 376.329 1383.1 374.441 1385.81 372.554C1389.48 369.996 1393.15 367.44 1396.83 364.889C1431.78 340.626 1466.29 317.047 1504.24 295.32C1547.87 270.332 1589.9 251.442 1632.71 237.57C1659.35 228.965 1687.31 222.398 1715.82 218.055C1742.47 213.993 1770.48 211.739 1799.09 211.351C1849.54 210.669 1903.31 215.609 1963.46 226.451C2010.45 234.871 2065.86 245.913 2120.54 263.975C2176.89 282.64 2229.58 306.597 2280.54 329.764C2285.54 332.04 2290.54 334.31 2295.52 336.569C2413.14 390.295 2529.1 450.352 2640.15 515.069L2639.89 515.226Z" fill="#FFE492"/>
<path d="M2636.01 513.152C2524.33 446.79 2410.22 385.975 2296.82 332.401C2290.04 329.196 2283.1 325.892 2276.38 322.698C2228.31 299.821 2178.6 276.165 2124.61 258.491C2070.69 240.904 2014.84 231.667 1967.31 224.953C1840.81 206.909 1737.2 213.271 1641.26 244.974C1549.75 275.324 1478.05 320.963 1408.72 365.098L1401.1 369.943C1395.09 373.771 1388.87 377.727 1382.74 381.608C1313.34 425.49 1243.86 466.617 1157.13 487.653C1136.09 492.758 1114.48 496.296 1092.89 498.174C1069.72 500.188 1047.21 500.217 1025.98 498.257C1002.93 496.129 981.578 491.658 962.525 484.968C941.79 477.688 923.668 467.731 908.667 455.377C907.315 454.259 905.97 453.108 904.67 451.954C881.671 431.583 867.561 408.028 853.916 385.249C850.871 380.166 847.72 374.909 844.54 369.804C826.864 341.374 806.903 316.677 783.512 294.302C780.588 291.507 777.558 288.7 774.505 285.964C718.82 236.024 642.465 194.117 553.693 164.771C449.781 130.522 339.96 115.236 244.45 121.732C179.64 126.234 113.061 149.7 82.5474 178.8C61.5195 198.85 57.1264 221.193 69.8406 243.416L69.4925 243.489C62.8386 231.861 60.7831 220.231 63.3809 208.925C65.7772 198.502 72.1196 188.327 82.2323 178.685C97.9876 163.663 122.584 150.204 153.369 139.761C181.861 130.095 214.192 123.616 244.406 121.516C294.504 118.109 348.266 120.62 404.208 128.981C454.779 136.54 505.13 148.516 553.865 164.579C642.689 193.941 719.087 235.874 774.806 285.843C777.858 288.581 780.892 291.39 783.816 294.186C807.221 316.571 827.194 341.281 844.877 369.727C848.057 374.832 851.208 380.091 854.253 385.174C867.89 407.94 881.993 431.484 904.967 451.831C906.264 452.98 907.608 454.129 908.957 455.247C972.832 507.853 1078.96 506.376 1156.99 487.451C1243.65 466.432 1313.1 425.32 1382.47 381.458C1388.6 377.577 1394.82 373.621 1400.83 369.793L1408.45 364.948C1442.48 343.285 1477.67 320.881 1515.89 300.041C1559.18 276.438 1600.13 258.363 1641.08 244.781C1667.44 236.068 1695.01 229.178 1723 224.304C1749.32 219.721 1776.9 216.766 1804.97 215.523C1855.21 213.297 1908.33 216.313 1967.39 224.737C2014.94 231.456 2070.82 240.695 2124.77 258.297C2178.8 275.978 2228.52 299.641 2276.61 322.524C2283.32 325.718 2290.26 329.02 2297.05 332.227C2410.45 385.806 2524.58 446.625 2636.26 512.993L2636.01 513.152Z" fill="#FFE492"/>
<path d="M2632.12 511.078C2521.41 443.979 2409.11 382.403 2298.35 328.062C2290.03 323.979 2281.49 319.733 2273.24 315.627C2227.76 292.997 2180.73 269.597 2128.85 252.82C2075.19 235.535 2019.08 228.172 1971.27 223.25C1848.28 210.392 1746.07 219.589 1649.63 252.191C1565.47 280.762 1496.37 321.254 1429.54 360.411C1422.51 364.532 1415.24 368.792 1408.15 372.919C1399.83 377.767 1393.47 381.45 1387.54 384.857C1355.77 403.098 1317.94 424.101 1278.25 441.571C1236.18 460.082 1196.16 472.894 1155.89 480.739C1134.72 484.865 1113.2 487.467 1091.93 488.47C1069.09 489.549 1046.98 488.757 1026.21 486.113C1003.71 483.249 982.856 478.21 964.225 471.137C944.021 463.467 926.276 453.332 911.481 441.018C910.147 439.902 908.81 438.748 907.513 437.591C884.818 417.356 870.235 394.165 856.129 371.737C852.857 366.535 849.475 361.158 846.063 355.934C827.593 327.583 807.144 303.088 783.544 281.046C780.576 278.275 777.502 275.494 774.406 272.78C717.947 223.287 640.992 181.939 551.861 153.203C447.227 119.584 337.098 105.057 241.756 112.295C187.507 116.504 116.652 135.893 80.6491 169.719C59.2439 189.831 54.1069 212.276 65.7988 234.626L65.4507 234.692C59.3354 223.005 57.7379 211.325 60.6985 199.975C63.4318 189.499 70.038 179.28 80.3413 169.601C96.2651 154.64 120.77 141.203 151.214 130.738C179.42 121.043 211.557 114.417 241.712 112.077C291.752 108.278 345.573 110.397 401.683 118.38C452.375 125.591 502.961 137.241 552.033 153.009C641.215 181.761 718.215 223.133 774.707 272.655C777.803 275.369 780.88 278.153 783.848 280.927C807.459 302.98 827.919 327.488 846.401 355.852C849.815 361.078 853.197 366.456 856.469 371.658C870.565 394.074 885.144 417.252 907.813 437.465C909.11 438.621 910.444 439.772 911.778 440.886C964.917 485.12 1056.13 499.939 1155.78 480.526C1246.01 462.946 1319.62 423.544 1387.29 384.694C1393.22 381.287 1399.57 377.604 1407.89 372.756C1414.98 368.629 1422.25 364.369 1429.28 360.248C1462.18 340.971 1496.2 321.038 1532.49 302.373C1573.51 281.264 1611.78 264.785 1649.46 251.995C1675.57 243.167 1702.73 235.954 1730.19 230.556C1756.2 225.442 1783.35 221.79 1810.87 219.697C1860.98 215.888 1913.47 216.978 1971.34 223.027C2019.17 227.954 2075.31 235.32 2129.02 252.62C2180.93 269.408 2227.98 292.814 2273.47 315.451C2281.72 319.556 2290.26 323.803 2298.58 327.886C2409.35 382.233 2521.66 443.814 2632.38 510.918L2632.12 511.078Z" fill="#FFE492"/>
<path d="M2628.24 509.005C2518.48 441.164 2408.01 378.824 2299.87 323.722C2290.67 319.035 2281.23 314.115 2272.09 309.358C2228.56 286.697 2183.56 263.266 2133.09 247.146C2079.39 230.068 2023.16 224.619 1975.23 221.542C1857.81 213.8 1754.04 226.184 1658 259.403C1581.53 285.973 1515.98 321.518 1452.58 355.895C1439.78 362.838 1426.54 370.018 1413.67 376.862C1405.79 381.052 1398.82 384.73 1392.33 388.107C1362.17 403.794 1322.06 423.907 1279.19 440.345C1236.11 456.859 1195.37 467.811 1154.64 473.823C1110.21 480.381 1065.87 480.429 1026.42 473.966C1004.48 470.371 984.126 464.767 965.912 457.306C946.248 449.252 928.88 438.94 914.286 426.663C912.964 425.545 911.637 424.389 910.348 423.232C887.975 403.151 872.938 380.341 858.399 358.283C854.882 352.947 851.247 347.43 847.579 342.07C828.299 313.794 807.363 289.497 783.572 267.797C780.561 265.049 777.442 262.293 774.302 259.603C717.07 210.557 639.518 169.766 550.028 141.644C444.672 108.657 334.235 94.8872 239.058 102.867C174.557 108.392 110.154 131.595 78.805 160.6C56.9894 180.784 51.094 203.345 61.7563 225.845L61.4046 225.905C55.8316 214.147 54.6957 202.405 58.0263 191.007C61.1041 180.471 67.9925 170.2 78.4973 160.479C94.5896 145.589 118.999 132.182 149.088 121.708C176.997 111.994 208.933 105.223 239.007 102.647C288.988 98.4556 342.867 100.186 399.15 107.787C449.967 114.651 500.787 125.975 550.196 141.446C639.738 169.586 717.334 210.399 774.603 259.475C777.743 262.165 780.861 264.924 783.876 267.673C807.678 289.387 828.625 313.695 847.916 341.984C851.584 347.344 855.219 352.863 858.736 358.199C873.268 380.246 888.297 403.045 910.648 423.106C911.938 424.264 913.26 425.415 914.583 426.534C966.81 470.481 1056.52 488.079 1154.55 473.609C1243.92 460.417 1321.54 424.638 1392.09 387.942C1398.57 384.565 1405.55 380.889 1413.42 376.699C1426.29 369.855 1439.53 362.677 1452.33 355.734C1515.74 321.351 1581.31 285.797 1657.82 259.216C1683.7 250.263 1710.46 242.728 1737.37 236.815C1763.1 231.162 1789.81 226.81 1816.75 223.88C1866.84 218.431 1918.7 217.597 1975.27 221.326C2023.22 224.406 2079.5 229.856 2133.26 246.954C2183.76 263.086 2228.78 286.526 2272.33 309.195C2281.46 313.952 2290.91 318.87 2300.11 323.557C2408.25 378.663 2518.74 441.007 2628.5 508.853L2628.24 509.005Z" fill="#FFE492"/>
<path d="M2624.35 506.931C2515.58 438.341 2406.92 375.242 2301.4 319.383C2291.71 314.249 2281.73 308.814 2272.09 303.557C2230.15 280.705 2186.78 257.074 2137.33 241.473C2083.41 224.54 2027.13 221.033 1979.19 219.836C1866.21 216.806 1763.88 232.108 1666.38 266.616C1597.99 290.932 1537.04 321.707 1478.08 351.467C1457.81 361.701 1438.66 371.368 1419.19 380.805C1411.27 384.646 1404.05 388.098 1397.13 391.354C1352.45 412.343 1315.27 427.52 1280.13 439.112C1236.05 453.656 1194.6 462.748 1153.4 466.904C1137.42 468.515 1121.49 469.319 1105.86 469.319C1078.14 469.319 1051.33 466.8 1026.64 461.812C981.958 452.784 945.105 436.127 917.101 412.302C915.782 411.172 914.467 410.017 913.192 408.863C891.16 388.956 875.701 366.551 860.752 344.881C856.963 339.391 853.05 333.716 849.104 328.197C829 299.987 807.572 275.893 783.61 254.538C780.554 251.815 777.392 249.083 774.208 246.417C716.203 197.818 638.049 157.586 548.2 130.073C442.123 97.7201 331.381 84.7057 236.37 93.4275C171.601 99.4966 109.056 122.259 77.0358 151.418C54.7769 171.685 48.101 194.381 57.7228 217.053L57.3674 217.108C52.344 205.269 51.6771 193.457 55.3888 181.999C58.8256 171.393 66.0035 161.064 76.7317 151.297C92.9927 136.488 117.296 123.126 147.019 112.652C174.627 102.922 206.339 96.0184 236.315 93.2095C286.237 88.6263 340.175 89.9647 396.627 97.1874C447.567 103.706 498.618 114.703 548.368 129.875C638.269 157.405 716.466 197.659 774.508 246.287C777.692 248.955 780.854 251.687 783.914 254.412C807.891 275.778 829.329 299.885 849.441 328.107C853.387 333.625 857.304 339.303 861.089 344.793C876.031 366.452 891.482 388.849 913.496 408.738C914.771 409.889 916.082 411.045 917.401 412.172C969.694 456.665 1055.69 476.535 1153.34 466.684C1246.29 457.306 1328.62 423.253 1396.9 391.178C1403.82 387.922 1411.04 384.472 1418.96 380.631C1438.43 371.194 1457.58 361.53 1477.85 351.296C1536.81 321.529 1597.78 290.75 1666.19 266.425C1691.88 257.333 1718.24 249.474 1744.56 243.064C1770.05 236.856 1796.32 231.804 1822.64 228.051C1872.84 220.894 1924.06 218.134 1979.21 219.613C2027.19 220.811 2083.51 224.322 2137.5 241.274C2186.99 256.886 2230.37 280.529 2272.33 303.39C2281.98 308.647 2291.95 314.082 2301.64 319.213C2407.16 375.077 2515.83 438.183 2624.61 506.777L2624.35 506.931Z" fill="#FFE492"/>
<path d="M2620.47 504.857C2511.15 434.538 2407.28 372.449 2302.93 315.042C2292.97 309.565 2283.17 303.971 2272.79 298.05C2232.22 274.9 2190.26 250.965 2141.58 235.8C2086.98 218.874 2028.23 217.465 1983.15 218.13C1875.31 219.512 1774.43 237.733 1674.75 273.833C1614.94 295.597 1559.72 321.734 1506.32 347.012C1478.25 360.297 1451.74 372.843 1424.71 384.75C1416.68 388.287 1409.23 391.51 1401.92 394.603C1356.63 413.746 1318.23 427.495 1281.07 437.877C1235.97 450.478 1193.8 457.709 1152.15 459.985C1130.75 461.154 1109.5 460.934 1088.99 459.331C1067.27 457.634 1046.36 454.378 1026.85 449.656C983.603 439.189 947.626 421.792 919.915 397.945C918.607 396.813 917.303 395.655 916.035 394.502C894.373 374.8 878.526 352.821 863.2 331.567C859.111 325.897 854.883 320.032 850.629 314.331C829.681 286.182 807.771 262.289 783.643 241.286C780.54 238.587 777.333 235.879 774.113 233.237C715.335 185.085 636.584 145.412 546.375 118.51C463.114 93.782 377.252 80.8798 298.515 80.8798C276.256 80.8798 254.584 81.9101 233.68 83.9948C169.692 90.5019 107.539 113.345 75.3324 142.192C52.6008 162.554 45.1152 185.404 53.6853 208.27L53.3263 208.318C48.8525 196.387 48.6656 184.493 52.7693 172.969C56.5726 162.286 64.0618 151.889 75.0246 142.069C91.4541 127.353 115.644 114.045 144.985 103.582C172.682 93.7049 203.331 86.8565 233.614 83.779C283.478 78.804 337.475 79.7528 394.099 86.5946C445.161 92.7627 496.45 103.433 546.537 118.309C636.796 145.227 715.595 184.922 774.41 233.103C777.634 235.745 780.844 238.455 783.947 241.156C808.086 262.17 830.008 286.074 850.966 314.236C855.22 319.938 859.452 325.802 863.541 331.475C878.86 352.72 894.699 374.69 916.343 394.376C917.611 395.527 918.915 396.685 920.219 397.815C972.04 442.407 1056.56 464.984 1152.12 459.763C1248.82 454.477 1336.3 422.065 1401.72 394.418C1409.02 391.325 1416.47 388.102 1424.5 384.567C1451.53 372.664 1478.03 360.117 1506.1 346.834C1559.51 321.553 1614.73 295.41 1674.56 273.639C1725.89 255.053 1776.25 241.508 1828.53 232.227C1878.96 223.276 1929.54 218.592 1983.15 217.905C2013.74 217.454 2038.7 218.237 2061.69 220.368C2091.38 223.12 2117.57 228.102 2141.75 235.599C2190.48 250.778 2232.46 274.726 2273.05 297.887C2283.43 303.808 2293.23 309.4 2303.18 314.877C2407.54 372.286 2511.42 434.379 2620.74 504.703L2620.47 504.857Z" fill="#FFE492"/>
<path d="M2616.58 502.784C2508.27 431.693 2406.17 368.864 2304.45 310.7C2294.39 304.946 2284.47 299.018 2273.97 292.742C2234.61 269.227 2193.91 244.909 2145.82 230.124C2090.77 213.278 2032.09 213.951 1987.11 216.419C1885.35 221.81 1785.91 242.95 1683.12 281.042C1632.48 299.901 1584.26 321.483 1537.63 342.356C1500.76 358.855 1465.95 374.441 1430.23 388.685C1422.16 391.908 1414.24 394.99 1406.71 397.843C1361.34 415.022 1320.54 427.709 1282.01 436.629C1235.87 447.31 1192.98 452.685 1150.91 453.059C1129.5 453.249 1108.33 452.086 1088.01 449.601C1066.7 446.995 1046.2 442.92 1027.06 437.487C985.3 425.628 950.195 407.492 922.726 383.578C921.436 382.449 920.139 381.289 918.875 380.129C897.62 360.667 881.429 339.153 865.769 318.348C861.339 312.462 856.755 306.373 852.15 300.453C830.345 272.357 807.947 248.666 783.676 228.022C780.529 225.348 777.279 222.664 774.014 220.047C714.463 172.341 635.111 133.228 544.544 106.935C437.027 75.8517 325.666 64.3519 230.984 74.5529C167.824 81.4762 106.085 104.379 73.6987 132.897C50.4541 153.368 42.1368 176.39 49.6407 199.477L49.2816 199.519C45.3685 187.484 45.6689 175.498 50.1793 163.895C54.3673 153.123 62.1753 142.652 73.3946 132.772C89.9853 118.162 114.054 104.921 143 94.4795C170.378 84.6043 200.778 77.6392 230.918 74.335C280.727 68.9703 334.779 69.525 391.571 75.9882C442.757 81.813 494.277 92.1571 544.701 106.734C635.324 133.041 714.719 172.178 774.304 219.912C777.572 222.53 780.826 225.215 783.973 227.892C808.258 248.548 830.664 272.249 852.479 300.356C857.089 306.276 861.669 312.365 866.102 318.253C881.755 339.049 897.939 360.554 919.179 380.003C920.443 381.161 921.74 382.321 923.026 383.448C975.393 429.034 1056.32 453.68 1150.9 452.835C1227.64 452.153 1308.87 434.617 1406.52 397.652C1414.04 394.799 1421.95 391.719 1430.02 388.496C1465.73 374.253 1500.55 358.672 1537.4 342.173C1584.04 321.298 1632.27 299.711 1682.93 280.848C1734.75 261.641 1784.3 247.103 1834.42 236.398C1885.18 225.554 1935.12 218.944 1987.08 216.192C2032.1 213.72 2090.85 213.049 2145.99 229.922C2194.13 244.724 2234.85 269.053 2274.23 292.579C2284.73 298.855 2294.65 304.781 2304.71 310.533C2406.43 368.699 2508.53 431.533 2616.85 502.627L2616.58 502.784Z" fill="#FFE492"/>
<path d="M2612.7 500.71C2505.39 428.847 2405.07 365.274 2305.98 306.362C2295.93 300.381 2285.99 294.166 2275.48 287.586C2237.24 263.651 2197.69 238.901 2150.07 224.452C2094.5 207.666 2035.91 210.429 1991.08 214.711C1895.32 223.681 1800.13 247.051 1691.5 288.256C1650.75 303.78 1610.93 320.809 1572.43 337.277C1525.66 357.279 1481.49 376.173 1435.75 392.628C1427.51 395.596 1419.35 398.444 1411.51 401.09C1365.32 416.663 1323.26 427.881 1282.95 435.383C1260.37 439.585 1238.08 442.63 1216.69 444.433C1193.88 446.354 1171.33 446.929 1149.66 446.141C1105.7 444.54 1064.52 437.536 1027.28 425.323C987.061 412.132 952.832 393.258 925.546 369.219C924.263 368.081 922.977 366.919 921.721 365.765C900.92 346.589 884.439 325.586 868.504 305.276C863.679 299.128 858.692 292.771 853.676 286.585C830.992 258.535 808.107 235.045 783.712 214.768C780.52 212.115 777.223 209.456 773.918 206.865C713.593 159.604 633.644 121.05 542.718 95.3712C434.483 64.9244 322.818 54.1818 228.293 65.1203C127.082 77.0142 28.4575 128.405 45.6052 190.692L45.2424 190.727C40.9519 175.146 43.4654 159.796 52.7097 145.1C61.1516 131.678 75.0053 119.047 93.886 107.56C111.44 96.8792 132.501 87.6577 156.478 80.1511C179.283 73.0121 204.092 67.7377 228.22 64.9024C277.97 59.1458 332.08 59.3109 389.045 65.3955C440.356 70.8746 492.11 80.893 542.872 95.1731C633.849 120.869 713.846 159.446 774.207 206.733C777.516 209.326 780.813 211.985 784.008 214.64C808.414 234.926 831.311 258.43 854.006 286.49C859.022 292.676 864.009 299.033 868.834 305.184C884.765 325.487 901.239 346.481 922.028 365.646C923.281 366.8 924.564 367.962 925.846 369.098C978.289 415.295 1057.78 442.577 1149.69 445.923C1227.49 448.752 1313.07 434.027 1411.33 400.901C1419.17 398.255 1427.32 395.409 1435.56 392.441C1481.29 375.99 1525.46 357.098 1572.22 337.099C1610.73 320.629 1650.55 303.597 1691.3 288.071C1799.98 246.848 1895.21 223.47 1991.02 214.493C2021.14 211.616 2046.08 210.695 2069.52 211.6C2099.47 212.756 2125.87 216.895 2150.23 224.254C2197.9 238.719 2237.47 263.484 2275.74 287.432C2286.25 294.01 2296.18 300.224 2306.24 306.203C2405.33 365.12 2505.66 428.695 2612.96 500.563L2612.7 500.71Z" fill="#FFE492"/>
<path d="M2608.81 498.636C2502.53 425.989 2403.97 361.677 2307.51 302.02C2297.53 295.848 2287.67 289.382 2277.23 282.534C2240.02 258.141 2201.54 232.916 2154.31 218.776C2097.53 201.85 2036.22 207.373 1995.04 213C1883.27 228.084 1783.11 263.151 1699.87 295.469C1669.96 307.132 1640.12 319.486 1611.25 331.433C1553.36 355.399 1498.68 378.035 1441.28 396.571C1432.83 399.298 1424.44 401.911 1416.31 404.339C1369.22 418.382 1325.9 428.129 1283.9 434.134C1236.28 440.943 1190.7 442.656 1148.43 439.222C1104.99 435.693 1064.31 426.923 1027.51 413.153C988.905 398.712 955.552 379.101 928.365 354.862C927.097 353.723 925.818 352.559 924.569 351.401C904.285 332.577 887.599 312.151 871.459 292.396C866.171 285.922 860.701 279.23 855.205 272.716C831.297 244.314 808.591 221.691 783.753 201.513C780.518 198.885 777.18 196.252 773.827 193.683C712.722 146.872 632.172 108.876 540.887 83.805C431.933 53.9966 319.961 44.0091 225.598 55.685C124.024 68.4198 27.4144 119.113 41.5648 181.906L41.2021 181.935C37.6919 166.356 40.7294 151.021 50.2266 136.358C58.9323 122.923 72.8665 110.278 91.6483 98.7786C109.162 88.0537 130.113 78.764 153.922 71.1627C176.591 63.9247 201.353 58.4983 225.524 55.4671C275.22 49.3187 329.385 49.0942 386.518 54.7979C437.953 59.9314 489.942 69.624 541.041 83.6047C632.381 108.689 712.975 146.706 774.109 193.547C777.462 196.118 780.803 198.753 784.042 201.381C808.895 221.568 831.609 244.204 855.527 272.617C861.023 279.131 866.494 285.825 871.781 292.299C887.917 312.048 904.6 332.467 924.869 351.282C926.119 352.44 927.394 353.602 928.661 354.741C981.511 401.858 1059.57 431.783 1148.47 439.004C1228.2 445.48 1315.75 434.075 1416.14 404.141C1424.27 401.715 1432.67 399.104 1441.1 396.377C1498.49 377.846 1553.16 355.214 1611.05 331.25C1639.91 319.303 1669.75 306.947 1699.67 295.282C1755.64 273.553 1802.2 257.498 1846.2 244.759C1897.98 229.763 1946.64 219.305 1994.95 212.784C2024.41 208.76 2050.08 206.938 2073.43 207.215C2103.51 207.572 2130.02 211.287 2154.47 218.578C2201.77 232.735 2240.26 257.976 2277.49 282.384C2287.94 289.231 2297.8 295.696 2307.77 301.864C2404.24 361.523 2502.8 425.84 2609.09 498.489L2608.81 498.636Z" fill="#FFE492"/>
<path d="M2604.93 496.561C2499.67 423.128 2402.88 358.074 2309.04 297.678C2299.2 291.344 2289.46 284.654 2279.15 277.57C2242.92 252.686 2205.47 226.955 2158.56 213.102C2101.16 196.215 2040.01 203.979 1999 211.29C1897.74 229.189 1807.41 263.27 1708.25 302.681C1690.36 309.816 1672.27 317.179 1654.78 324.303C1587.49 351.696 1517.92 380.021 1446.8 400.511C1438.16 403.003 1429.51 405.383 1421.1 407.584C1373.69 419.982 1327.85 428.493 1284.84 432.88C1236.12 437.851 1189.81 437.655 1147.18 432.301C1104.35 426.923 1064.16 416.385 1027.72 400.98C990.84 385.39 958.355 365.043 931.167 340.505C929.911 339.364 928.643 338.198 927.401 337.04C907.729 318.656 890.937 298.895 874.698 279.785C868.846 272.899 862.797 265.78 856.718 258.852C831.876 230.479 808.698 208.05 783.775 188.264C780.503 185.666 777.117 183.055 773.717 180.506C711.85 134.135 630.707 96.6988 539.055 72.2396C429.387 43.0695 317.11 33.8393 222.901 46.2505C124.551 59.3485 26.1575 108.262 37.5197 173.119L37.1569 173.141C34.4272 157.562 37.9887 142.245 47.7386 127.615C56.7045 114.164 70.723 101.509 89.4022 89.9957C123.866 68.757 172.495 52.7334 222.82 46.0325C272.457 39.4945 326.681 38.8781 383.986 44.201C435.546 48.9911 487.766 58.3557 539.201 72.0371C630.905 96.5095 712.096 133.97 774.003 180.363C777.407 182.915 780.792 185.525 784.068 188.125C809.002 207.922 832.191 230.36 857.041 258.744C863.119 265.674 869.172 272.793 875.024 279.679C891.259 298.785 908.047 318.542 927.709 336.917C928.947 338.074 930.215 339.239 931.472 340.379C985.864 389.474 1060.48 421.184 1147.25 432.083C1227.59 442.174 1319.67 433.864 1420.95 407.382C1429.35 405.18 1437.99 402.803 1446.63 400.313C1517.73 379.83 1587.29 351.509 1654.56 324.12C1672.06 316.997 1690.15 309.633 1708.04 302.498C1751.44 285.247 1801.95 265.459 1852.08 248.937C1904.52 231.657 1952.54 219.274 1998.89 211.081C2028.07 205.879 2053.74 203.18 2077.35 202.832C2107.12 202.392 2134.49 205.782 2158.71 212.906C2179.72 219.111 2200.87 228.372 2223.37 241.22C2243.23 252.563 2261.63 265.203 2279.42 277.425C2289.72 284.507 2299.46 291.197 2309.3 297.528C2403.15 357.926 2499.94 422.983 2605.2 496.418L2604.93 496.561Z" fill="#FFE492"/>
<path d="M2601.04 494.487C2496.82 420.261 2401.8 354.465 2310.57 293.338C2300.9 286.866 2291.33 279.974 2281.2 272.679C2245.92 247.277 2209.44 221.011 2162.8 207.431C2119.22 194.779 2066.93 195.484 2002.96 209.584C1913.51 229.187 1833.56 261.976 1748.9 296.693C1738.36 301.017 1727.47 305.485 1716.62 309.899C1712.37 311.631 1708.12 313.368 1703.88 315.103C1623.22 348.055 1539.81 382.13 1452.32 404.456C1443.47 406.714 1434.59 408.861 1425.9 410.833C1377.45 421.824 1330.31 428.82 1285.8 431.625C1235.96 434.764 1188.9 432.664 1145.94 425.382C1103.78 418.234 1064.09 405.928 1027.96 388.806C992.935 372.21 961.322 351.13 933.992 326.147C932.746 325.005 931.49 323.836 930.255 322.676C911.33 304.869 894.593 285.904 878.401 267.565C871.847 260.138 865.064 252.457 858.253 244.981C832.451 216.628 808.803 194.392 783.822 175.007C780.502 172.431 777.077 169.847 773.632 167.322C710.981 121.4 629.237 84.5205 537.226 60.6733C426.847 32.1438 314.259 23.6686 220.207 36.8151C123.664 50.4216 25.4096 99.7362 33.4814 164.333L33.115 164.35C31.1694 148.769 35.2512 133.47 45.2539 118.877C54.4836 105.411 68.5828 92.7403 87.163 81.2185C121.48 59.9358 169.941 43.6745 220.123 36.6015C269.705 29.6717 323.984 28.6635 381.457 33.6077C433.142 38.05 485.6 47.0887 537.373 60.4707C629.435 84.3334 711.23 121.232 773.907 167.179C777.351 169.704 780.785 172.293 784.104 174.868C809.096 194.264 832.759 216.507 858.568 244.871C865.383 252.347 872.162 260.03 878.72 267.457C894.904 285.792 911.642 304.752 930.559 322.552C931.794 323.712 933.047 324.879 934.293 326.022C989.865 376.82 1063.08 411.102 1146.04 425.164C1227.92 439.046 1322.04 434.152 1425.77 410.622C1434.45 408.649 1443.33 406.505 1452.17 404.249C1539.64 381.932 1623.03 347.863 1703.67 314.916C1707.92 313.179 1712.16 311.444 1716.41 309.712C1727.26 305.298 1738.15 300.829 1748.69 296.508C1833.37 261.784 1913.35 228.986 2002.83 209.374C2031.73 203.004 2057.39 199.431 2081.27 198.447C2111.16 197.216 2138.64 200.173 2162.96 207.23C2183.85 213.313 2204.73 222.616 2226.81 235.672C2246.28 247.191 2264.18 260.076 2281.48 272.536C2291.62 279.829 2301.18 286.719 2310.84 293.189C2402.08 354.318 2497.1 420.116 2601.32 494.343L2601.04 494.487Z" fill="#FFE492"/>
<path d="M2597.16 492.413C2502.03 423.247 2406.12 354.807 2312.09 288.997C2302.52 282.336 2293.03 275.179 2282.99 267.605C2250.33 242.963 2213.3 215.034 2167.05 201.758C2122.95 189.129 2070.58 191.13 2006.92 207.873C1931.23 227.716 1864.24 256.893 1793.33 287.782C1771.12 297.455 1748.15 307.46 1724.99 317.111C1684.56 333.993 1640.82 351.857 1594.97 368.127C1545.87 385.553 1501.01 398.724 1457.83 408.396C1448.76 410.428 1439.63 412.341 1430.68 414.078C1381.2 423.682 1332.78 429.148 1286.77 430.324C1235.83 431.623 1188.03 427.634 1144.69 418.459C1064.66 401.306 994.713 365.417 936.795 311.788C935.561 310.643 934.315 309.472 933.087 308.312C915.123 291.291 898.678 273.335 882.777 255.968C875.291 247.795 867.553 239.341 859.767 231.115C832.983 202.768 808.859 180.728 783.848 161.755C780.481 159.201 777.011 156.641 773.526 154.143C710.113 108.663 627.768 72.3449 535.398 49.1074C424.305 21.2163 311.412 13.5006 217.515 27.3801C120.385 41.8188 24.5928 90.4796 29.4403 155.547L29.0739 155.556C27.9124 139.97 32.5217 124.689 42.77 110.133C52.2672 96.65 66.4469 83.9658 84.9209 72.4351C102.325 61.5715 122.953 52.0726 146.231 44.2006C168.831 36.5597 192.782 30.8274 217.423 27.1644C266.95 19.8449 321.287 18.4448 378.929 23.0082C430.739 27.1093 483.427 35.8201 535.537 48.9027C627.962 72.1533 710.355 108.493 773.805 153.995C777.289 156.496 780.766 159.058 784.134 161.612C809.155 180.596 833.29 202.645 860.085 231.001C867.871 239.229 875.61 247.682 883.095 255.858C898.997 273.222 915.438 291.177 933.395 308.191C934.619 309.353 935.868 310.522 937.099 311.667C994.973 365.254 1064.86 401.114 1144.81 418.25C1227.17 435.684 1325.98 434.17 1430.57 413.867C1439.51 412.13 1448.64 410.219 1457.7 408.189C1554.25 386.566 1642.58 351.249 1724.78 316.928C1747.94 307.277 1770.9 297.274 1793.11 287.602C1864.04 256.706 1931.04 227.522 2006.77 207.671C2070.52 190.901 2123 188.9 2167.2 201.557C2187.92 207.503 2208.49 216.824 2230.09 230.047C2249.13 241.708 2266.49 254.804 2283.28 267.466C2293.32 275.041 2302.8 282.195 2312.37 288.852C2406.4 354.664 2502.31 423.104 2597.44 492.272L2597.16 492.413Z" fill="#FFE492"/>
<path d="M2593.27 490.339C2499.6 420.79 2405.51 351.588 2313.62 284.656C2304.35 277.923 2295.15 270.64 2285.4 262.931C2253.54 237.715 2217.43 209.133 2171.29 196.081C2126.67 183.474 2074.2 186.771 2010.87 206.159C1944.53 226.442 1883.57 255.081 1824.63 282.781C1795.07 296.669 1764.5 311.031 1733.36 324.32C1684.2 345.317 1642.84 361.334 1603.2 374.729C1554.31 391.246 1508.56 403.547 1463.35 412.335C1454.07 414.14 1444.69 415.817 1435.48 417.321C1387.46 425.151 1340.31 429.113 1295.21 429.116C1292.7 429.116 1290.21 429.102 1287.72 429.078C1235.57 428.567 1187.03 422.663 1143.45 411.533C1122.41 406.131 1101.8 399.274 1082.21 391.151C1063.8 383.517 1045.7 374.524 1028.42 364.425C997.343 346.255 968.287 324.338 939.605 297.426C938.374 296.269 937.146 295.108 935.926 293.944C919.284 278.066 903.54 261.467 888.316 245.415C879.526 236.15 870.439 226.567 861.287 217.24C833.107 188.504 809.235 167.3 783.877 148.494C780.466 145.965 776.952 143.429 773.423 140.955C709.241 95.926 626.298 60.1673 533.569 37.5396C421.765 10.2891 308.565 3.33067 214.821 17.9432C119.513 32.842 23.8449 81.8726 25.4021 146.757L25.0357 146.76C24.3102 116.537 44.2462 87.7986 82.6854 63.652C100.06 52.7377 120.579 43.1707 143.677 35.2106C166.152 27.4663 190.056 21.5842 214.729 17.7275C264.197 10.0162 318.594 8.22646 376.404 12.409C428.338 16.1667 481.261 24.5517 533.705 37.3327C626.492 59.9758 709.482 95.7565 773.705 140.812C777.234 143.288 780.755 145.826 784.166 148.356C809.536 167.173 833.418 188.383 861.605 217.13C870.758 226.459 879.849 236.042 888.635 245.307C903.859 261.357 919.6 277.953 936.238 293.827C937.458 294.992 938.682 296.152 939.913 297.308C1000.86 354.494 1067.48 391.792 1143.59 411.331C1249 438.249 1360.45 429.331 1435.38 417.109C1444.59 415.606 1453.96 413.931 1463.24 412.126C1567.22 391.913 1662.1 354.488 1733.15 324.142C1764.29 310.857 1794.85 296.495 1824.4 282.609C1883.37 254.905 1944.33 226.257 2010.71 205.965C2039.04 197.289 2064.69 191.962 2089.1 189.681C2119.22 186.868 2146.92 188.955 2171.44 195.885C2192.1 201.729 2212.48 211.125 2233.72 224.606C2252.44 236.484 2269.35 249.862 2285.7 262.801C2295.44 270.508 2304.63 277.788 2313.9 284.518C2405.79 351.45 2499.88 420.651 2593.56 490.201L2593.27 490.339Z" fill="#FFE492"/>
<path d="M2589.39 488.266L2315.15 280.317C2306.19 273.526 2297.3 266.136 2287.88 258.315C2256.81 232.502 2221.58 203.246 2175.53 190.41C2131 177.999 2076.94 182.723 2014.83 204.452C1955.13 225.341 1900.68 253.12 1848.02 279.985C1813.7 297.497 1778.2 315.603 1741.74 331.538C1632.13 379.435 1536.34 407.725 1440.28 420.57C1400.43 425.897 1361.11 428.578 1322.99 428.578C1311.43 428.578 1299.99 428.332 1288.68 427.839C1235.3 425.514 1186.02 417.699 1142.21 404.614C1101.6 392.485 1064.46 375.363 1028.66 352.266C1000.07 333.823 972.669 311.836 942.423 283.071C926.458 267.891 911 252.118 896.051 236.865C862.217 202.348 827.233 166.655 783.921 135.242C717.485 87.061 630.281 49.277 531.737 25.9736C419.226 -0.634153 305.718 -6.83755 212.128 8.50805C121.517 23.365 23.1706 70.2141 21.3605 137.972L20.9941 137.967C21.8039 107.681 42.3627 78.9468 80.4466 54.8707C114.881 33.1015 161.612 16.5606 212.033 8.29452C261.446 0.193556 315.9 -1.98798 373.876 1.81375C425.935 5.22584 479.092 13.2872 531.873 25.7688C580.633 37.2995 626.943 52.4778 669.519 70.8833C712.45 89.4429 751.036 111.047 784.199 135.097C827.53 166.521 862.525 202.222 896.366 236.748C911.315 251.999 926.773 267.77 942.734 282.948C986.863 324.919 1049.44 376.653 1142.37 404.412C1248.95 436.246 1363.15 430.65 1440.19 420.35C1536.21 407.514 1631.95 379.235 1741.52 331.356C1777.97 315.427 1813.46 297.321 1847.78 279.813C1900.45 252.944 1954.92 225.158 2014.65 204.259C2076.86 182.492 2131.04 177.763 2175.69 190.207C2196.31 195.955 2216.49 205.432 2237.4 219.184C2255.8 231.289 2272.26 244.962 2288.18 258.183C2297.59 266.004 2306.49 273.39 2315.44 280.179L2589.68 488.127L2589.39 488.266Z" fill="#FFE492"/>
<path d="M2587.18 472.279C2517.35 414.379 2457.43 367.396 2398.62 324.423C2370.08 303.548 2340.92 283.001 2311.97 263.351C2303.21 257.408 2294.54 251.086 2285.35 244.391C2262.27 227.566 2238.4 210.169 2210.93 197.258C2196.18 190.313 2181.98 185.34 2167.52 182.056C2123.14 171.874 2071.07 178.606 2012.75 202.066C1982.57 214.189 1955.09 227.985 1932.19 239.881C1907.95 252.475 1884.03 266.363 1860.9 279.793C1827.66 299.099 1793.28 319.061 1756.33 336.205C1733.84 346.668 1711.05 356.017 1688.58 363.995C1643.62 379.955 1595.36 393.106 1545.15 403.082C1514.13 409.178 1482.95 413.785 1452.5 416.775C1426.26 419.341 1399.96 420.823 1374.35 421.177C1336.01 421.71 1298.66 419.678 1263.33 415.132C1225.77 410.298 1190.22 402.582 1157.68 392.196C1128.66 382.935 1101.25 371.275 1073.88 356.546C1022.88 329.121 982.21 297.411 952.473 272.848C937.865 260.725 923.601 248.362 909.806 236.407C870.084 201.976 832.564 169.455 785.614 140.488C747.321 117.017 703.631 96.7622 655.746 80.2829C618.948 67.6185 578.926 57.2612 536.793 49.497C526.758 47.6501 516.531 45.9286 506.408 44.3855C462.821 37.7528 413.752 33.4338 360.569 31.5472C306.949 29.6012 260.559 31.2853 218.756 36.7006C195.123 39.7384 172.227 44.5044 150.693 50.8641C74.6723 73.3178 25.8565 111.012 20.1113 151.697L19.6533 151.673C21.1849 140.827 25.6807 130.143 33.0124 119.916C39.9777 110.201 49.5444 100.832 61.4452 92.0689C83.9313 75.5148 114.724 61.1796 150.492 50.6153C172.058 44.2446 194.991 39.4721 218.661 36.4298C260.508 31.0101 306.935 29.3239 360.598 31.2721C413.811 33.1586 462.905 37.4821 506.521 44.1191C516.656 45.6645 526.886 47.3859 536.929 49.2351C579.095 57.0036 619.15 67.3698 655.977 80.0452C703.895 96.5355 747.621 116.808 785.932 140.294C832.913 169.279 870.439 201.808 910.176 236.248C923.967 248.204 938.231 260.565 952.836 272.685C982.558 297.237 1023.21 328.932 1074.18 356.339C1101.52 371.052 1128.9 382.702 1157.89 391.952C1221.58 412.277 1294.4 422.018 1374.33 420.902C1399.93 420.548 1426.2 419.066 1452.43 416.502C1482.86 413.512 1514.01 408.909 1545 402.818C1595.19 392.848 1643.41 379.706 1688.34 363.755C1710.8 355.784 1733.58 346.439 1756.04 335.985C1792.98 318.85 1827.35 298.892 1860.58 279.593C1883.71 266.16 1907.63 252.268 1931.89 239.669C1954.8 227.767 1982.29 213.966 2012.5 201.835C2038.46 191.389 2063.6 184.173 2087.22 180.385C2116.24 175.731 2143.31 176.207 2167.68 181.798C2182.19 185.094 2196.42 190.08 2211.21 197.04C2238.72 209.971 2262.6 227.379 2285.7 244.215C2294.89 250.907 2303.56 257.23 2312.31 263.169C2341.27 282.82 2370.43 303.37 2398.98 324.25C2457.79 367.227 2517.71 414.214 2587.55 472.119L2587.18 472.279Z" fill="#FFE492"/>
<path d="M2584.97 456.289C2520.22 397.409 2459.46 348.139 2399.19 305.664C2369.81 284.916 2339.39 264.972 2308.79 246.386C2300.67 241.455 2292.66 236.33 2284.17 230.906C2258.76 214.662 2232.48 197.866 2203.05 186.245C2188.19 180.352 2173.95 176.249 2159.51 173.699C2104.22 163.934 2048.06 182.434 2010.67 199.673C1984.19 211.851 1960 225.621 1935.49 239.835C1914.05 252.277 1893.87 265.661 1872.51 279.829C1840.8 300.86 1808.02 322.608 1770.92 340.868C1748.9 351.762 1725.92 361.182 1702.62 368.865C1659.22 383.178 1611.7 394.292 1557.33 402.847C1526.9 407.633 1495.75 411.042 1464.72 412.977C1438.54 414.591 1412.41 415.168 1387.04 414.686C1349.31 413.977 1312.43 410.789 1277.42 405.213C1240.65 399.355 1205.56 390.797 1173.14 379.774C1144.73 370.119 1117.3 358.14 1089.28 343.153C1038.39 315.973 994.804 285.841 962.517 262.625C950.565 254.031 938.803 245.384 927.426 237.019C882.121 203.708 839.328 172.242 787.307 145.734C748.428 125.921 704.778 109.169 657.578 95.9434C621.865 85.9361 584.012 78.4383 541.861 73.0208C532.133 71.7726 522.237 70.6477 512.45 69.6769C469.464 65.4349 423.586 63.8301 368.08 62.1703C328.069 60.9134 275.692 60.0856 225.374 64.889C201.543 67.1212 178.507 70.9977 156.9 76.4064C80.828 95.4547 29.224 128.73 18.8548 165.422L18.3125 165.367C21.0605 155.637 26.6298 146.095 34.8555 137.001C42.6965 128.336 52.9998 120.028 65.4758 112.302C89.1857 97.6231 120.726 85.104 156.688 76.1005C178.335 70.6807 201.415 66.7976 225.286 64.561C275.651 59.751 328.069 60.5809 368.106 61.8379C423.63 63.4977 469.522 65.1025 512.538 69.3467C522.332 70.3197 532.236 71.4446 541.975 72.6928C584.166 78.1169 622.056 85.6213 657.809 95.6396C705.057 108.879 748.743 125.644 787.662 145.476C839.72 172.004 882.531 203.479 927.851 236.803C939.224 245.166 950.986 253.813 962.938 262.405C995.218 285.612 1038.79 315.733 1089.65 342.9C1117.63 357.871 1145.03 369.838 1173.41 379.482C1237.16 401.154 1309.05 412.885 1387.06 414.351C1412.4 414.831 1438.51 414.256 1464.66 412.643C1495.66 410.71 1526.79 407.305 1557.19 402.521C1611.51 393.975 1659 382.87 1702.36 368.57C1725.63 360.896 1748.58 351.489 1770.57 340.606C1807.64 322.361 1840.41 300.623 1872.11 279.602C1893.48 265.428 1913.66 252.041 1935.12 239.592C1959.63 225.37 1983.83 211.596 2010.34 199.405C2034.58 188.228 2058.48 180.189 2081.39 175.505C2109.17 169.825 2135.51 169.11 2159.67 173.376C2174.16 175.936 2188.45 180.053 2203.36 185.963C2232.84 197.606 2259.14 214.418 2284.58 230.675C2293.06 236.097 2301.08 241.219 2309.19 246.148C2339.8 264.741 2370.22 284.692 2399.62 305.446C2459.89 347.932 2520.68 397.211 2585.43 456.104L2584.97 456.289Z" fill="#FFE492"/>
<path d="M2582.76 440.299C2522.16 379.641 2462.31 329.465 2399.77 286.907C2369.53 266.286 2337.85 246.948 2305.62 229.423C2298.73 225.676 2291.63 221.7 2284.77 217.857C2256.45 201.976 2227.16 185.556 2195.18 175.234C2180.17 170.356 2165.88 167.12 2151.51 165.344C2096.33 158.522 2043.34 178.946 2008.59 197.279C1985.05 209.655 1963.52 223.682 1942.7 237.248L1938.8 239.789C1919.9 252.097 1902.17 265.595 1883.4 279.889C1853.5 302.648 1822.59 326.181 1785.51 345.531C1763.93 356.872 1740.77 366.362 1716.67 373.737C1674.64 386.595 1627.88 395.77 1569.5 402.612C1539.31 406.149 1508.17 408.359 1476.93 409.178C1450.81 409.837 1424.84 409.506 1399.73 408.192C1323.7 404.232 1252.66 390.491 1188.59 367.353C1160.89 357.35 1133.44 345.055 1104.68 329.76C1056.01 303.932 1012.72 277.384 972.563 252.405C967.177 249.057 961.85 245.73 956.563 242.43C901.709 208.202 849.899 175.87 789.011 150.986C749.26 134.74 705.654 121.493 659.41 111.609C625.46 104.353 588.665 99.4264 546.932 96.547C537.527 95.902 527.96 95.3715 518.496 94.9709C494.687 93.9803 469.434 93.8196 442.698 93.6501C421.223 93.5136 399.019 93.3727 375.588 92.7981C330.334 91.594 279.045 90.2314 231.984 93.0843C207.702 94.557 184.527 97.5421 163.1 101.958C87.0571 117.632 32.661 146.493 17.5909 179.164L16.9717 179.06C20.9435 170.446 27.5827 162.044 36.7024 154.086C45.4228 146.476 56.4588 139.225 69.5028 132.535C94.4511 119.74 126.746 109.042 162.888 101.593C184.363 97.1656 207.585 94.174 231.914 92.6991C279.023 89.8439 330.337 91.2088 375.61 92.4129C399.027 92.9853 421.231 93.1283 442.698 93.2648C469.445 93.4343 494.705 93.595 518.536 94.5878C528.008 94.9907 537.585 95.5212 546.998 96.1662C588.783 99.0478 625.621 103.981 659.619 111.248C705.918 121.143 749.571 134.406 789.366 150.669C850.31 175.575 902.145 207.922 957.021 242.166C962.308 245.466 967.639 248.79 973.021 252.141C1013.18 277.115 1056.45 303.657 1105.1 329.476C1133.83 344.754 1161.25 357.037 1188.92 367.027C1252.91 390.137 1323.86 403.858 1399.78 407.813C1424.87 409.125 1450.81 409.456 1476.9 408.797C1508.1 407.979 1539.22 405.771 1569.37 402.237C1627.69 395.402 1674.41 386.238 1716.37 373.398C1740.43 366.038 1763.54 356.566 1785.08 345.245C1822.12 325.919 1853.01 302.4 1882.89 279.653C1901.67 265.353 1919.41 251.848 1938.33 239.531L1942.22 236.991C1963.05 223.417 1984.59 209.382 2008.17 196.992C2043.02 178.6 2096.2 158.117 2151.63 164.969C2166.07 166.755 2180.41 170.002 2195.48 174.9C2227.53 185.244 2256.85 201.681 2285.21 217.579C2292.06 221.423 2299.16 225.399 2306.04 229.143C2338.29 246.677 2369.98 266.027 2400.24 286.658C2462.81 329.234 2522.68 379.427 2583.3 440.105L2582.76 440.299Z" fill="#FFE492"/>
<path d="M2580.55 424.306C2524.91 362.732 2464.28 310.192 2400.34 268.151C2369.26 247.661 2336.32 228.925 2302.45 212.463C2297.56 210.086 2292.55 207.618 2287.7 205.232C2255.69 189.468 2222.59 173.165 2187.33 164.227C2172.19 160.351 2157.86 157.984 2143.52 156.989C2088.5 153.177 2038.65 175.492 2006.52 194.883C1986.57 206.863 1968.57 220.186 1951.15 233.07C1948.14 235.3 1945.13 237.526 1942.11 239.742C1925.55 251.92 1910.06 265.525 1893.66 279.926C1865.79 304.409 1836.96 329.725 1800.1 350.197C1778.45 362.219 1755.76 371.513 1730.71 378.615C1678.32 393.467 1625.97 398.964 1581.67 402.385C1551.7 404.696 1520.57 405.709 1489.14 405.387C1463.1 405.09 1437.29 403.851 1412.42 401.707C1338.67 395.365 1268.57 379.629 1204.05 354.937C1177.2 344.665 1149.74 332.052 1120.08 316.376C1090.13 300.579 1062.22 285.379 1035.22 270.678C1016.88 260.686 999.545 251.249 982.621 242.195C918.647 207.968 860.049 177.876 790.729 156.245C750.124 143.577 706.563 133.829 661.253 127.276C628.779 122.578 594.066 120.291 552.014 120.073C542.942 120.033 533.701 120.097 524.552 120.264C510.655 120.535 496.277 121.101 481.06 121.702C451.858 122.853 418.754 124.158 383.095 123.428C369.517 123.148 355.663 122.754 342.264 122.371C307.8 121.387 272.164 120.37 238.59 121.279C213.935 121.948 190.617 124.044 169.292 127.509C93.3775 139.847 36.1931 164.298 16.3194 192.913L15.6416 192.744C20.8445 185.25 28.5536 177.99 38.5527 171.164C48.1562 164.608 59.925 158.416 73.5258 152.761C99.7346 141.864 132.78 132.986 169.095 127.084C190.47 123.61 213.84 121.508 238.55 120.839C272.16 119.927 307.811 120.947 342.293 121.931C355.689 122.314 369.542 122.708 383.117 122.987C418.743 123.718 451.822 122.415 481.009 121.264C496.233 120.663 510.614 120.097 524.527 119.826C533.687 119.659 542.935 119.595 552.018 119.635C594.129 119.85 628.893 122.144 661.422 126.848C706.786 133.411 750.406 143.169 791.062 155.856C822.375 165.625 854.106 178.003 888.067 193.695C918.472 207.741 948.047 223.111 983.105 241.867C1000.03 250.923 1017.36 260.36 1035.71 270.352C1062.7 285.051 1090.61 300.251 1120.56 316.046C1150.18 331.706 1177.62 344.307 1204.43 354.567C1268.86 379.227 1338.87 394.94 1412.51 401.273C1437.36 403.415 1463.14 404.652 1489.14 404.949C1520.54 405.271 1551.64 404.26 1581.56 401.949C1625.81 398.535 1678.1 393.044 1730.39 378.218C1755.37 371.137 1778.01 361.867 1799.6 349.876C1836.39 329.439 1865.2 304.143 1893.05 279.679C1909.46 265.269 1924.95 251.658 1941.54 239.467C1944.55 237.251 1947.56 235.025 1950.57 232.797C1968 219.904 1986.02 206.573 2005.99 194.577C2026.9 181.961 2048.34 172.256 2069.73 165.731C2095.07 158.002 2119.92 154.916 2143.59 156.558C2158 157.557 2172.4 159.935 2187.6 163.827C2222.95 172.788 2256.1 189.111 2288.15 204.895C2293 207.281 2298.01 209.749 2302.89 212.124C2336.79 228.599 2369.75 247.353 2400.86 267.858C2434.81 290.182 2468.06 315.616 2499.68 343.455C2527.63 368.059 2555.05 395.193 2581.17 424.099L2580.55 424.306Z" fill="#FFE492"/>
<path d="M2578.33 408.308C2526.84 344.969 2467.15 291.502 2400.92 249.393C2368.98 229.032 2334.79 210.902 2299.29 195.501C2297.6 194.768 2295.91 194.035 2294.22 193.3C2257.3 177.265 2219.13 160.685 2179.49 153.22C2164.13 150.328 2149.75 148.828 2135.55 148.635C2080.75 147.891 2034.02 172.07 2004.47 192.483C1987.08 204.426 1971.64 217.515 1956.71 230.173C1953.02 233.303 1949.2 236.539 1945.44 239.691C1931.09 251.697 1917.75 265.348 1903.62 279.802C1877.94 306.093 1851.38 333.277 1814.71 354.859C1793.49 367.345 1770.61 376.71 1744.76 383.49C1693.84 396.846 1642.13 400.352 1593.84 402.153C1564.06 403.263 1532.94 403.073 1501.34 401.592C1475.4 400.337 1449.75 398.191 1425.11 395.214C1353.87 386.629 1284.69 368.9 1219.51 342.516C1193.4 331.952 1166.71 319.391 1135.5 302.987C1076.19 271.895 1032.15 249.996 992.701 231.982C914.243 196.155 854.362 175.077 792.48 161.504C751.051 152.417 707.534 146.171 663.129 142.94C632.322 140.699 599.628 140.899 557.125 143.596C548.416 144.155 539.505 144.813 530.638 145.555C522.262 146.266 513.754 147.081 504.745 147.941C471.479 151.122 433.773 154.728 390.618 154.054C367.871 153.7 344.638 152.729 322.17 151.791C296.635 150.726 270.233 149.623 245.2 149.473C220.101 149.324 196.641 150.53 175.488 153.062C99.8262 162.111 39.8461 182.155 15.0443 206.675L14.3408 206.418C20.7822 200.047 29.5612 193.93 40.4324 188.235C50.9261 182.736 63.4204 177.604 77.5709 172.979C105.058 163.993 138.863 156.936 175.327 152.575C196.538 150.039 220.05 148.828 245.207 148.978C270.262 149.128 296.679 150.231 322.225 151.298C344.685 152.236 367.908 153.207 390.636 153.561C433.714 154.233 471.38 150.631 504.609 147.455C513.623 146.592 522.138 145.78 530.517 145.066C539.395 144.324 548.314 143.666 557.03 143.105C599.599 140.406 632.348 140.204 663.221 142.451C707.688 145.687 751.267 151.941 792.755 161.041C854.721 174.633 914.664 195.733 993.192 231.59C1032.65 249.611 1076.71 271.516 1136.03 302.617C1167.22 319.008 1193.89 331.556 1219.96 342.109C1285.06 368.455 1354.13 386.16 1425.26 394.732C1449.87 397.704 1475.49 399.846 1501.4 401.101C1532.96 402.58 1564.04 402.769 1593.78 401.662C1642 399.864 1693.62 396.366 1744.43 383.041C1770.18 376.287 1792.98 366.954 1814.12 354.511C1850.71 332.976 1877.25 305.82 1902.91 279.558C1917.04 265.095 1930.39 251.433 1944.76 239.41C1948.53 236.259 1952.35 233.023 1956.03 229.893C1970.97 217.224 1986.42 204.126 2003.84 192.164C2023.12 178.842 2043.34 168.304 2063.93 160.841C2088.05 152.1 2112.15 147.831 2135.56 148.146C2149.85 148.34 2164.29 149.848 2179.73 152.753C2219.5 160.245 2257.73 176.847 2294.7 192.906C2296.39 193.641 2298.08 194.377 2299.77 195.107C2335.31 210.526 2369.54 228.678 2401.51 249.06C2467.8 291.207 2527.54 344.715 2579.07 408.099L2578.33 408.308Z" fill="#FFE492"/>
<path d="M1612.07 401.925C1610.01 401.925 1607.99 401.923 1605.99 401.916C1576.37 401.841 1545.26 400.454 1513.54 397.791C1487.69 395.578 1462.2 392.525 1437.79 388.719C1402.91 383.29 1367.9 375.489 1333.73 365.532C1300.74 355.917 1267.51 343.994 1234.97 330.092C1203.08 316.473 1173.29 301.297 1150.91 289.596C1098.53 262.295 1048.69 239.476 1002.78 221.771C928.419 193.096 862.155 175.615 794.235 166.759C753.261 161.416 709.3 158.599 666.973 158.599C666.317 158.599 665.665 158.599 665.009 158.601C628.647 158.676 594.125 162.735 562.24 167.111C553.941 168.258 545.357 169.511 536.724 170.838C531.994 171.573 527.256 172.331 522.244 173.132C486.89 178.792 446.816 185.204 398.133 184.678C368.483 184.357 338.2 182.512 308.914 180.727C290.004 179.573 270.452 178.382 251.802 177.662C226.165 176.674 202.573 176.991 181.673 178.609C106.414 184.429 43.6383 200.068 13.7435 220.443L13.0547 220.08C28.3886 209.63 51.4537 200.583 81.6086 193.186C110.408 186.124 144.971 180.894 181.556 178.065C202.51 176.445 226.165 176.124 251.861 177.116C270.529 177.836 290.091 179.029 309.009 180.183C338.277 181.968 368.542 183.813 398.151 184.132C446.71 184.658 486.714 178.254 522.009 172.606C527.025 171.802 531.763 171.045 536.497 170.31C545.137 168.982 553.729 167.728 562.035 166.581C593.975 162.198 628.556 158.132 665.005 158.055C708.006 157.965 752.755 160.791 794.43 166.226C829.483 170.798 863.467 177.528 898.316 186.8C931.878 195.731 966.21 207.019 1003.27 221.313C1049.21 239.031 1099.09 261.868 1151.5 289.187C1173.87 300.881 1203.63 316.046 1235.49 329.65C1301.53 357.858 1369.67 377.554 1438.02 388.193C1462.4 391.994 1487.85 395.043 1513.67 397.253C1545.35 399.913 1576.41 401.3 1605.99 401.372C1652.28 401.487 1706.03 400.549 1758.46 387.858C1784.99 381.435 1807.95 372.041 1828.64 359.144C1864.98 336.492 1889.06 307.419 1912.36 279.301C1924.35 264.838 1935.67 251.176 1947.97 239.351C1951.92 235.562 1955.9 231.659 1959.74 227.884C1972.74 215.129 1986.18 201.943 2001.67 189.754C2019.36 175.732 2038.35 164.357 2058.11 155.948C2081.01 146.198 2104.36 140.743 2127.5 139.735C2141.79 139.112 2156.29 139.748 2171.83 141.681C2213.38 146.846 2254.57 161.85 2296.62 178.089C2333.28 192.248 2369.77 210.288 2402.14 230.261C2438.1 252.383 2471.89 278.334 2502.56 307.394C2529.88 333.284 2554.91 361.783 2576.95 392.1L2576.11 392.32C2528.78 327.213 2470.03 272.818 2401.49 230.647C2369.16 210.702 2332.73 192.689 2296.13 178.554C2254.15 162.343 2213.04 147.367 2171.64 142.221C2156.19 140.299 2141.77 139.667 2127.57 140.286C2085.04 142.141 2040.59 159.827 2002.4 190.089C1986.94 202.256 1973.51 215.431 1960.52 228.172C1956.68 231.95 1952.69 235.855 1948.75 239.643C1936.47 251.447 1925.15 265.098 1913.18 279.547C1901.75 293.343 1889.93 307.61 1876.37 321.325C1860.99 336.873 1845.6 349.368 1829.3 359.527C1808.52 372.482 1785.46 381.917 1758.8 388.371C1735.29 394.064 1710.02 397.826 1681.55 399.877C1657.43 401.606 1633.22 401.925 1612.07 401.925Z" fill="#FFE492"/>
<path d="M1670.82 403.027C1652.14 403.027 1634.19 402.358 1618.14 401.68C1588.62 400.434 1557.52 397.848 1525.73 393.991C1499.98 390.823 1474.66 386.865 1450.45 382.222C1384.18 369.536 1318.74 348.418 1250.41 317.668C1220.61 304.259 1192.52 289.832 1166.31 276.205C1114.56 249.382 1062.93 227.633 1012.85 211.558C939.206 187.918 870.301 175.351 796.002 172.009C753.667 170.105 709.025 170.882 666.896 174.254C631.633 177.076 598.39 183.887 567.356 190.619C559.591 192.312 551.333 194.161 542.814 196.114C540.685 196.605 538.538 197.104 536.362 197.608C500.619 205.912 460.176 215.307 408.271 215.307C407.395 215.307 406.523 215.305 405.64 215.298C370.524 215.085 334.672 212.073 299.995 209.159C286.248 208.003 272.032 206.81 258.391 205.844C231.746 203.959 208.67 203.402 187.84 204.146C112.079 206.854 48.1306 217.808 12.399 234.206L11.7871 233.724C29.4514 225.618 54.9933 218.581 85.6428 213.372C115.79 208.25 151.108 204.851 187.777 203.541C208.666 202.795 231.801 203.352 258.504 205.24C272.16 206.207 286.38 207.402 300.131 208.556C334.774 211.466 370.594 214.475 405.644 214.689C458.629 215.014 499.732 205.463 535.992 197.038C538.164 196.534 540.315 196.034 542.444 195.541C550.97 193.586 559.232 191.737 567.004 190.045C598.089 183.3 631.395 176.48 666.753 173.649C708.948 170.272 753.664 169.493 796.067 171.399C832.887 173.054 867.992 176.964 903.387 183.348C939.84 189.923 975.799 198.973 1013.32 211.019C1063.46 227.115 1115.15 248.891 1166.95 275.741C1193.16 289.363 1221.23 303.782 1251 317.177C1319.24 347.886 1384.58 368.972 1450.75 381.639C1474.92 386.273 1500.21 390.226 1525.92 393.39C1557.67 397.242 1588.72 399.827 1618.2 401.068C1667.8 403.159 1720.57 404.234 1772.48 392.661C1799.8 386.57 1822.91 377.117 1843.15 363.762C1879.19 339.972 1901.63 307.522 1921.42 278.891C1931.38 264.485 1940.79 250.879 1951.17 239.28C1954.92 235.095 1958.69 230.769 1962.33 226.587C1973.74 213.5 1985.53 199.968 1999.48 187.33C2015.63 172.608 2033.39 160.397 2052.28 151.037C2073.97 140.287 2096.56 133.648 2119.43 131.308C2133.73 129.844 2148.28 129.611 2163.92 130.588C2207.61 133.325 2252 146.845 2293.46 161.051C2331.75 174.166 2369.54 191.592 2402.77 211.444C2439.73 233.462 2473.78 259.673 2503.98 289.345C2530.98 315.88 2554.82 345.061 2574.83 376.083L2573.89 376.301C2531.36 310.361 2471.94 253.503 2402.06 211.871C2368.9 192.057 2331.18 174.664 2292.97 161.574C2251.6 147.402 2207.33 133.915 2163.82 131.189C2148.27 130.216 2133.81 130.45 2119.61 131.902C2077.38 136.224 2035.02 156.025 2000.33 187.66C1986.4 200.272 1974.62 213.79 1963.23 226.864C1959.59 231.049 1955.82 235.375 1952.07 239.564C1941.71 251.136 1932.31 264.73 1922.36 279.12C1902.53 307.795 1880.06 340.298 1843.89 364.167C1823.55 377.595 1800.3 387.1 1772.83 393.227C1749 398.541 1723.28 401.618 1694.21 402.629C1686.36 402.915 1678.53 403.027 1670.82 403.027Z" fill="#FFE492"/>
<path d="M1707.7 405.411C1707.43 405.411 1707.17 405.411 1706.9 405.411C1680.5 405.372 1654.58 403.43 1630.28 401.445C1600.81 399.036 1569.73 395.248 1537.92 390.189C1512.29 386.07 1487.13 381.203 1463.13 375.726C1399.5 361.226 1336.82 338.832 1265.86 305.246C1240.31 293.154 1215.17 280.133 1190.84 267.543C1187.8 265.967 1184.76 264.393 1181.71 262.819C1129.69 236.002 1076.28 215.321 1022.95 201.351C949.92 182.223 876.269 174.342 797.786 177.259C754.752 178.86 710.15 183.234 668.801 189.908C636.177 195.176 607.106 203.627 572.489 214.127C565.472 216.265 557.979 218.572 548.914 221.39L548.409 221.548C530.92 227.021 511.098 233.222 488.865 237.937C463.33 243.353 438.558 245.959 413.155 245.928C373.543 245.869 333.118 241.44 294.026 237.154C284.449 236.103 274.541 235.018 264.978 234.036C237.553 231.225 214.338 229.805 194.006 229.698C119.143 229.301 52.4501 235.967 11.032 247.982L10.5557 247.388C30.8434 241.501 58.2099 236.724 89.6949 233.572C121.238 230.413 157.314 228.846 194.017 229.039C214.407 229.147 237.681 230.569 265.165 233.387C274.735 234.369 284.643 235.454 294.224 236.504C333.268 240.784 373.642 245.208 413.159 245.268C413.334 245.268 413.514 245.268 413.69 245.268C470.215 245.268 513.278 231.795 547.903 220.963L548.412 220.804C557.481 217.984 564.974 215.677 571.994 213.54C606.67 203.022 635.792 194.555 668.519 189.272C709.937 182.584 754.612 178.204 797.72 176.601C836.126 175.175 872.352 176.262 908.476 179.929C947.402 183.881 984.992 190.69 1023.39 200.748C1076.82 214.744 1130.33 235.458 1182.43 262.319C1185.48 263.893 1188.52 265.469 1191.56 267.046C1215.87 279.631 1241.01 292.647 1266.54 304.731C1337.4 338.275 1399.99 360.638 1463.52 375.114C1487.48 380.585 1512.61 385.443 1538.2 389.557C1569.97 394.609 1601 398.391 1630.43 400.795C1683.15 405.105 1734.75 408.095 1786.53 397.493C1814.62 391.739 1837.9 382.227 1857.67 368.411C1893.39 343.454 1912.91 308.873 1930.13 278.361C1938.19 264.076 1945.8 250.582 1954.39 239.243C1957.7 234.88 1961.01 230.367 1964.22 226.001C1974.24 212.353 1984.61 198.242 1997.32 184.937C2011.95 169.508 2028.49 156.459 2046.46 146.152C2066.96 134.406 2088.79 126.586 2111.37 122.914C2125.37 120.638 2139.66 119.529 2155.01 119.529C2155.34 119.529 2155.68 119.529 2156.01 119.531C2203.74 119.681 2252.86 132.708 2290.32 144.041C2330.22 156.115 2369.33 172.925 2403.41 192.653C2441.37 214.57 2475.7 241.039 2505.42 271.327C2532.09 298.507 2554.74 328.373 2572.72 360.099L2571.68 360.312C2544.92 313.107 2493.86 245.785 2402.65 193.131C2368.65 173.446 2329.63 156.677 2289.82 144.631C2252.47 133.329 2203.51 120.339 2156.01 120.191C2140.37 120.136 2125.87 121.241 2111.66 123.553C2069.83 130.357 2029.56 152.274 1998.27 185.265C1985.59 198.54 1975.24 212.635 1965.22 226.268C1962.02 230.635 1958.7 235.15 1955.39 239.516C1946.83 250.826 1939.22 264.303 1931.17 278.572C1913.92 309.14 1894.37 343.787 1858.51 368.84C1838.6 382.749 1815.17 392.324 1786.88 398.116C1762.91 403.023 1737 405.411 1707.7 405.411Z" fill="#FFE492"/>
<path d="M1737.03 408.511C1731.34 408.511 1725.53 408.4 1719.58 408.18C1693.53 407.218 1668.22 404.332 1642.43 401.206C1612.53 397.583 1582.33 392.736 1550.11 386.387C1524.61 381.319 1499.61 375.548 1475.8 369.227C1415.39 353.219 1355.41 329.654 1281.32 292.821C1262.92 283.674 1244.53 274.081 1226.74 264.802C1217.05 259.752 1207.04 254.528 1197.12 249.428C1144.49 222.431 1089.28 202.821 1033.05 191.141C958.746 175.707 882.381 172.88 799.581 182.5C755.837 187.583 711.275 195.554 670.718 205.551C638.137 213.581 609.756 224.859 579.707 236.799L577.63 237.624C572.936 239.495 568.191 241.393 563.387 243.313C560.621 244.42 557.836 245.534 555.026 246.656C537.505 253.694 518.58 261.036 496.878 266.686C471.681 273.246 446.758 276.474 420.677 276.553C377.259 276.681 332.972 270.618 290.147 264.749C284.035 263.911 277.711 263.045 271.574 262.224C242.8 258.372 220.116 256.155 200.177 255.244C126.596 251.882 57.1551 254.251 9.65473 261.744L9.35059 261.053C56.9756 253.54 126.559 251.163 200.268 254.531C220.263 255.444 243.005 257.668 271.834 261.526C277.975 262.35 284.299 263.215 290.414 264.054C332.715 269.85 376.442 275.84 419.285 275.84C419.747 275.84 420.208 275.84 420.674 275.837C476.088 275.67 515.535 261.656 554.37 246.062C557.181 244.939 559.965 243.825 562.732 242.718C567.535 240.796 572.276 238.901 576.974 237.028L579.051 236.202C609.151 224.242 637.58 212.945 670.267 204.888C710.897 194.872 755.536 186.888 799.358 181.796C882.366 172.152 958.937 174.987 1033.44 190.463C1089.82 202.174 1145.15 221.827 1197.9 248.884C1207.82 253.987 1217.83 259.208 1227.52 264.261C1245.3 273.537 1263.69 283.128 1282.08 292.268C1356.08 329.059 1415.98 352.592 1476.28 368.574C1500.06 374.883 1525.02 380.648 1550.48 385.707C1582.65 392.047 1612.81 396.887 1642.67 400.504C1687.99 405.997 1744.4 412.834 1800.57 402.303C1829.45 396.89 1852.88 387.318 1872.19 373.04C1907.57 346.888 1923.97 310.106 1938.45 277.656C1944.74 263.558 1950.68 250.242 1957.61 239.192C1960.31 234.886 1963.02 230.432 1965.63 226.124C1974.41 211.677 1983.49 196.739 1995.15 182.531C2008.3 166.384 2023.61 152.496 2040.64 141.251C2059.94 128.51 2081.03 119.513 2103.3 114.509C2117.6 111.298 2132.25 109.319 2148.1 108.458C2169.32 107.304 2191.91 108.537 2217.16 112.218C2238.52 115.335 2261.42 120.173 2287.17 127.013C2328.7 138.044 2369.11 154.239 2404.04 173.847C2443.02 195.66 2477.61 222.391 2506.85 253.293C2533.18 281.121 2554.64 311.671 2570.61 344.099L2569.47 344.302C2535.74 275.84 2476.7 215.49 2403.23 174.371C2368.39 154.816 2328.09 138.667 2286.68 127.669C2231.2 112.933 2187.21 107.053 2148.21 109.171C2132.46 110.025 2117.92 111.991 2103.72 115.179C2050.72 127.081 2016 158.547 1996.22 182.846C1984.59 197.018 1975.52 211.939 1966.75 226.369C1964.13 230.679 1961.42 235.135 1958.72 239.443C1951.81 250.46 1945.88 263.761 1939.6 277.841C1925.1 310.361 1908.66 347.221 1873.11 373.491C1853.65 387.882 1830.03 397.53 1800.92 402.987C1781.19 406.686 1760.15 408.511 1737.03 408.511Z" fill="#FFE492"/>
<path d="M1762.43 412.064C1723.68 412.064 1686.43 406.083 1654.56 400.967C1624.58 396.155 1594.4 390.141 1562.28 382.583C1536.93 376.574 1512.09 369.895 1488.46 362.729C1417.62 341.275 1354.46 310.48 1296.77 280.397C1284.99 274.255 1273.09 267.924 1261.58 261.802C1245.61 253.3 1229.08 244.51 1212.53 236.04C1159.11 208.776 1102.12 190.234 1043.16 180.929C966.884 168.894 887.796 171.12 801.376 187.735C756.88 196.29 712.363 207.858 672.634 221.189C641.991 231.47 616.065 244.449 588.618 258.19C586.672 259.163 584.723 260.14 582.762 261.117L581.7 261.65C575.028 264.994 568.128 268.45 561.134 271.919C544.374 280.269 525.919 288.905 504.572 295.502C479.792 303.161 454.811 306.98 428.192 307.178C381.468 307.528 333.847 299.637 287.798 292.004C284.57 291.47 281.356 290.937 278.158 290.411C247.79 285.405 225.637 282.437 206.335 280.786C134.601 274.653 62.4053 272.725 8.25833 275.497L8.14844 274.728C62.3833 271.95 134.685 273.881 206.515 280.023C225.872 281.678 248.072 284.652 278.495 289.667C281.693 290.193 284.907 290.725 288.138 291.263C334.1 298.879 381.63 306.751 428.174 306.408C485.981 305.976 526.692 288.073 560.313 271.325C567.308 267.856 574.207 264.4 580.879 261.058L581.942 260.525C583.902 259.546 585.851 258.57 587.797 257.597C615.292 243.832 641.262 230.831 672.007 220.516C711.809 207.16 756.411 195.572 800.984 187.002C841.955 179.126 880.439 174.578 918.629 173.099C961.23 171.45 1003.23 173.834 1043.48 180.185C1102.63 189.518 1159.78 208.113 1213.36 235.452C1229.92 243.927 1246.45 252.719 1262.43 261.223C1273.93 267.345 1285.83 273.674 1297.6 279.813C1355.24 309.864 1418.32 340.626 1489.03 362.04C1512.63 369.195 1537.43 375.865 1562.75 381.866C1594.81 389.412 1624.95 395.417 1654.89 400.223C1700.86 407.602 1758.07 416.786 1814.6 407.122C1844.26 402.05 1867.84 392.419 1886.69 377.679C1921.71 350.296 1934.81 311.251 1946.37 276.8C1951.01 262.958 1955.4 249.884 1960.81 239.148C1962.81 235.177 1964.82 231.073 1966.76 227.104C1974.36 211.58 1982.22 195.526 1992.96 180.132C2004.66 163.254 2018.73 148.523 2034.79 136.351C2052.91 122.617 2073.24 112.443 2095.21 106.109C2109.48 101.997 2124.18 99.1465 2140.16 97.392C2161.69 95.03 2185.58 95.1092 2211.17 97.6276C2233.57 99.8333 2258.07 103.992 2283.99 109.99C2327.14 119.978 2368.86 135.557 2404.66 155.043C2444.65 176.755 2479.51 203.744 2508.27 235.262C2534.25 263.737 2554.52 294.974 2568.49 328.104L2567.24 328.294C2537.64 258.093 2479.6 196.767 2403.8 155.615C2368.12 136.193 2326.53 120.665 2283.53 110.71C2227.79 97.8081 2180.97 93.6982 2140.39 98.1515C2124.53 99.8927 2109.93 102.724 2095.77 106.805C2043.49 121.873 2011.65 155.158 1994.15 180.429C1983.43 195.783 1975.58 211.816 1967.99 227.32C1966.05 231.289 1964.04 235.395 1962.04 239.37C1956.65 250.071 1952.26 263.127 1947.63 276.952C1942.06 293.526 1935.76 312.31 1926.61 329.92C1916.13 350.098 1903.4 365.873 1887.71 378.148C1878.64 385.245 1868.21 391.285 1856.71 396.102C1844.35 401.282 1830.3 405.24 1814.95 407.864C1797.38 410.868 1779.75 412.064 1762.43 412.064Z" fill="#FFE492"/>
<path d="M1785.33 415.962C1772.52 415.962 1759.1 415.213 1744.92 413.719C1717 410.776 1690.28 405.435 1666.7 400.726C1636.98 394.789 1605.94 387.404 1574.46 378.777C1549.27 371.834 1524.6 364.248 1501.12 356.226C1433.75 333.229 1375.71 302.65 1312.21 267.97C1306.57 264.888 1300.84 261.744 1295.3 258.702C1273.48 246.729 1250.92 234.348 1227.94 222.65C1173.63 195.068 1114.86 177.595 1053.27 170.718C975.575 162.043 891.427 169.528 803.172 192.968C757.884 204.996 713.407 220.159 674.55 236.821C645.293 249.366 621.209 264.157 595.711 279.817C593.121 281.409 590.519 283.005 587.903 284.607C581.392 288.601 574.379 292.887 567.245 297.177C552.285 306.205 534.053 316.492 512.27 324.313C487.886 333.07 462.843 337.484 435.714 337.803C386.052 338.391 335.5 328.511 286.61 318.957L284.749 318.594C260.812 313.918 235.49 309.194 212.502 306.326C142.431 297.584 69.4035 291.515 6.87695 289.237L6.96122 288.414C69.5537 290.694 142.647 296.768 212.78 305.518C235.834 308.395 261.2 313.126 285.174 317.808L287.035 318.171C335.818 327.703 386.268 337.559 435.689 336.975C492.763 336.302 532.181 317.168 566.274 296.589C573.408 292.301 580.414 288.015 586.925 284.024C589.541 282.424 592.142 280.826 594.733 279.236C620.275 263.549 644.402 248.732 673.755 236.145C712.685 219.45 757.247 204.258 802.618 192.208C844.026 181.212 884.773 173.635 923.722 169.69C968.225 165.184 1011.9 165.255 1053.52 169.902C1115.35 176.805 1174.33 194.339 1228.83 222.017C1251.83 233.725 1274.4 246.11 1296.23 258.09C1301.77 261.13 1307.5 264.274 1313.15 267.355C1376.58 302.003 1434.56 332.548 1501.81 355.506C1525.25 363.515 1549.89 371.09 1575.04 378.024C1606.48 386.638 1637.46 394.012 1667.14 399.94C1713.66 409.235 1771.56 420.798 1828.65 411.938C1859.1 407.212 1882.84 397.523 1901.22 382.317C1935.85 353.666 1945.87 310.482 1953.92 275.782C1957.06 262.266 1960.02 249.5 1964.03 239.11C1965.3 235.834 1966.58 232.46 1967.81 229.195C1974.22 212.236 1980.86 194.698 1990.81 177.739C2006.17 151.347 2035.35 116.041 2087.14 97.7195C2101.45 92.6608 2116.2 88.9362 2132.25 86.3342C2174.24 79.4285 2224.23 81.6629 2280.84 92.9712C2325.61 101.915 2368.64 116.878 2405.3 136.243C2446.3 157.852 2481.43 185.1 2509.71 217.237C2522.69 231.978 2534.15 247.722 2543.8 264.031C2553.01 279.61 2560.61 295.788 2566.38 312.116L2565.04 312.287C2539.59 240.343 2482.53 178.042 2404.39 136.862C2367.87 117.569 2325 102.664 2280.4 93.7527C2224.06 82.495 2174.33 80.2672 2132.61 87.1288C2116.68 89.711 2102.03 93.4071 2087.84 98.4284C2036.41 116.623 2007.39 151.747 1992.1 178.009C1982.18 194.924 1975.56 212.438 1969.15 229.376C1967.91 232.64 1966.64 236.017 1965.37 239.295C1961.37 249.65 1958.41 262.398 1955.28 275.895C1951.23 293.356 1946.64 313.146 1938.79 331.824C1929.77 353.287 1917.84 369.963 1902.33 382.801C1893.48 390.125 1883.12 396.302 1871.56 401.158C1859.1 406.39 1844.78 410.287 1828.99 412.735C1815.14 414.888 1800.67 415.962 1785.33 415.962Z" fill="#FFE492"/>
<path d="M1806.44 420.079C1791.08 420.079 1774.89 418.884 1757.6 416.486C1729.58 412.605 1702.62 406.164 1678.83 400.48C1648.88 393.326 1617.87 384.743 1586.64 374.967C1561.62 367.097 1537.1 358.604 1513.79 349.722C1449.62 325.298 1394.59 293.818 1336.32 260.494C1333.44 258.846 1330.56 257.195 1327.67 255.544C1300.57 240.064 1272.55 224.055 1243.35 209.262C1188.09 181.329 1127.54 164.925 1063.39 160.505C982.8 154.951 895.857 167.633 804.967 198.194C759.504 213.48 713.868 232.749 676.466 252.448C648.224 267.323 625.573 284.06 601.592 301.781C598.752 303.879 595.905 305.983 593.036 308.092C587.306 312.312 580.487 317.316 573.349 322.434C560.129 331.937 542.117 344.014 519.964 353.099C495.969 362.941 470.87 367.958 443.232 368.431C420.516 368.772 395.446 366.665 366.588 361.988C341.812 357.972 317.846 352.724 291.326 346.781C267.118 341.288 241.568 335.615 218.646 331.869C150.748 320.77 79.0286 311.051 5.48438 302.976L5.74817 302.111C79.3364 310.188 151.096 319.915 219.031 331.019C242.015 334.777 267.601 340.458 291.839 345.955C336.291 355.921 391.614 368.327 443.192 367.55C502.161 366.538 540.058 344.995 572.224 321.866C579.358 316.752 586.173 311.751 591.9 307.533C594.769 305.424 597.616 303.319 600.452 301.224C624.473 283.474 647.165 266.709 675.499 251.786C712.978 232.046 758.701 212.741 804.252 197.426C895.417 166.772 982.661 154.057 1063.56 159.631C1094.57 161.768 1125.04 166.732 1154.1 174.384C1185.29 182.593 1215.63 194.104 1244.29 208.591C1273.53 223.399 1301.57 239.416 1328.68 254.907C1331.57 256.561 1334.45 258.209 1337.34 259.858C1395.55 293.154 1450.53 324.602 1514.57 348.98C1537.86 357.849 1562.33 366.331 1587.32 374.187C1618.5 383.948 1649.47 392.52 1679.37 399.664C1726.37 410.891 1784.86 424.863 1842.69 416.759C1874.02 412.37 1897.91 402.622 1915.73 386.962C1950.05 357.05 1956.16 311.357 1961.07 274.642C1962.83 261.511 1964.49 249.109 1967.24 239.08C1967.81 237.01 1968.38 234.93 1968.95 232.839C1974.08 213.949 1979.4 194.414 1988.63 175.351C2001.82 147.931 2028.2 110.75 2079.06 89.3351C2093.25 83.3607 2108.05 78.7642 2124.32 75.2817C2146.93 70.3969 2172.13 68.1009 2199.21 68.4531C2223.93 68.7745 2250.33 71.2995 2277.67 75.9553C2324.05 83.8516 2368.4 98.1978 2405.92 117.442C2447.93 138.945 2483.33 166.457 2511.14 199.211C2523.9 214.24 2534.94 230.307 2543.97 246.967C2552.62 262.922 2559.45 279.463 2564.26 296.13L2562.82 296.28C2541.84 223.655 2484.3 158.715 2404.97 118.111C2367.61 98.9506 2323.45 84.6639 2277.27 76.7984C2220.32 67.0993 2167.61 66.8615 2124.81 76.1072C2108.66 79.5633 2093.97 84.1245 2079.9 90.0528C2029.39 111.32 2003.15 148.309 1990.04 175.593C1980.83 194.606 1975.52 214.112 1970.39 232.978C1969.82 235.069 1969.25 237.151 1968.69 239.221C1965.94 249.212 1964.29 261.599 1962.53 274.711C1957.6 311.53 1951.47 357.356 1916.93 387.459C1908.34 395.008 1898.07 401.326 1886.41 406.233C1873.86 411.511 1859.26 415.342 1843.02 417.618C1831.3 419.256 1819.16 420.079 1806.44 420.079Z" fill="#FFE492"/>
<path d="M1826.27 424.365C1808.77 424.365 1790.24 422.666 1770.27 419.254C1742.01 414.426 1714.88 406.887 1690.95 400.236C1660.71 391.832 1629.71 382.047 1598.81 371.159C1573.97 362.375 1549.62 352.973 1526.44 343.219C1469.36 319.207 1420.59 289.79 1368.94 258.646C1360.5 253.554 1351.77 248.29 1343.11 243.115C1312.66 224.932 1286.66 209.939 1258.75 195.874C1202.51 167.571 1140.18 152.235 1073.5 150.289C989.711 147.843 899.961 165.718 806.748 203.416C760.442 222.145 714.847 245.105 678.365 268.07C650.881 285.37 629.395 304.203 606.649 324.14C603.831 326.61 601.002 329.089 598.155 331.57C593.084 335.997 586.372 341.83 579.443 347.679C550.285 372.352 512.19 397.753 450.741 399.052C448.825 399.09 446.901 399.107 444.981 399.107C396.997 399.107 348.009 387.698 297.892 374.958L294.763 374.157C269.94 367.791 246.49 361.779 224.784 357.403C142.985 340.91 63.875 326.989 4.09277 316.704L4.52148 315.804C64.3183 326.093 143.45 340.016 225.279 356.515C247.043 360.903 270.519 366.923 295.375 373.296L298.501 374.098C350.453 387.303 401.189 399.083 450.686 398.119C511.454 396.833 549.23 371.628 578.172 347.14C585.097 341.295 591.802 335.466 596.873 331.041C599.72 328.558 602.545 326.082 605.363 323.612C628.145 303.643 649.664 284.78 677.236 267.425C713.792 244.412 759.479 221.405 805.876 202.639C848.939 185.222 892.017 171.849 933.912 162.887C981.98 152.604 1028.97 148.052 1073.57 149.353C1140.6 151.308 1203.24 166.719 1259.75 195.154C1287.7 209.241 1313.72 224.25 1344.2 242.448C1352.86 247.623 1361.59 252.889 1370.04 257.981C1421.63 289.095 1470.37 318.483 1527.33 342.447C1550.48 352.19 1574.79 361.576 1599.6 370.346C1630.45 381.221 1661.4 390.991 1691.6 399.382C1739.01 412.557 1798.01 428.953 1856.73 421.572C1888.82 417.537 1912.87 407.732 1930.23 391.598C1964.11 360.324 1966.15 312.059 1967.79 273.278C1968.32 260.625 1968.83 248.671 1970.45 239.04L1970.48 238.82C1974.11 217.254 1977.85 194.954 1986.45 172.951C1993.89 153.76 2004.25 136.506 2017.25 121.664C2031.91 104.932 2049.98 91.2308 2070.96 80.9395C2085 74.0537 2099.86 68.5833 2116.37 64.218C2160.99 52.355 2215.66 50.5234 2274.49 58.926C2298.16 62.3073 2321.51 67.4298 2343.9 74.1483C2366.41 80.9065 2387.49 89.1461 2406.54 98.6339C2449.57 120.033 2485.24 147.805 2512.56 181.18C2537.12 211.178 2554.26 245.398 2562.14 280.137L2560.6 280.263C2543.74 205.91 2487.23 139.971 2405.54 99.3538C2367.35 80.3297 2321.9 66.6637 2274.13 59.8417C2215.64 51.4876 2161.31 53.2993 2117.01 65.081C2100.62 69.4132 2085.89 74.8395 2071.95 81.6703C2032.77 100.886 2003.73 132.526 1987.97 173.169C1979.4 195.115 1975.66 217.384 1972.04 238.919L1972 239.139C1970.39 248.735 1969.88 260.671 1969.35 273.307C1967.7 312.207 1965.66 360.617 1931.53 392.111C1923.16 399.891 1912.96 406.345 1901.23 411.294C1888.58 416.63 1873.72 420.396 1857.04 422.494C1847.11 423.74 1836.88 424.365 1826.27 424.365Z" fill="#FFE492"/>
<path d="M451.88 429.756C430.423 429.756 407.058 427.244 380.688 422.115C354.486 417.019 328.574 409.983 304.473 403.142C300.109 401.896 295.778 400.652 291.476 399.417C270.064 393.269 249.838 387.461 230.936 382.938C155.563 364.906 83.7188 348.7 14.238 333.031L2.72559 330.433L3.30449 329.506L14.8169 332.104C84.3014 347.778 156.157 363.984 231.544 382.02C250.498 386.554 270.749 392.368 292.187 398.525C296.485 399.76 300.816 401.004 305.176 402.248C354.651 416.292 407.215 429.903 458.197 428.69C520.866 427.123 558.422 397.792 584.136 372.417C590.724 365.928 597.07 359.46 601.863 354.551C604.508 351.846 607.135 349.142 609.755 346.446C631.483 324.091 652.005 302.976 678.994 283.067C714.62 256.791 760.262 230.08 807.521 207.858C851.365 187.24 895.608 170.95 939.026 159.441C988.828 146.24 1037.47 139.389 1083.6 139.079C1153.02 138.458 1217.5 152.806 1275.21 181.721C1307.21 197.769 1335.89 215.129 1359.74 229.994C1372.71 238.084 1385.69 246.377 1398.24 254.396C1442.66 282.787 1488.59 312.142 1540.1 335.919C1563.11 346.543 1587.27 356.836 1611.88 366.511C1642.35 378.458 1673.29 389.425 1703.85 399.107C1751.61 414.239 1811.05 433.071 1870.77 426.388C1903.64 422.709 1927.84 412.847 1944.74 396.238C1978.18 363.546 1975.92 312.637 1974.1 271.732C1973.57 259.636 1973.06 248.208 1973.67 239.009C1975.04 218.27 1977.11 194.167 1984.28 170.56C1990.33 150.557 1999.45 132.459 2011.4 116.772C2024.92 99.0273 2042.25 84.1506 2062.89 72.5539C2076.57 64.869 2091.9 58.3464 2108.45 53.1644C2132.06 45.7458 2158.57 41.0812 2187.22 39.3025C2214.06 37.6361 2242.35 38.5122 2271.32 41.9045C2295.74 44.7662 2319.82 49.4727 2342.88 55.8963C2366.08 62.3594 2387.71 70.412 2407.17 79.8293C2429.6 90.6732 2450.22 103.478 2468.47 117.891C2485.75 131.546 2501.07 146.775 2514 163.153C2538.19 193.793 2554.11 228.72 2560.03 264.151L2558.39 264.25C2545.67 188.164 2490.18 121.228 2406.13 80.602C2367.64 61.9742 2319.66 48.5768 2271 42.8775C2210.84 35.831 2154.9 39.6921 2109.21 54.0427C2092.79 59.1829 2077.58 65.6548 2064.01 73.2781C2025.12 95.1287 1998.83 127.918 1985.9 170.738C1978.75 194.282 1976.68 218.343 1975.31 239.049C1974.71 248.215 1975.21 259.625 1975.75 271.706C1976.64 291.885 1977.66 314.76 1974.26 336.872C1970.31 362.531 1961.12 382.119 1946.15 396.755C1938 404.764 1927.88 411.357 1916.07 416.35C1903.32 421.743 1888.18 425.448 1871.08 427.361C1862.45 428.327 1853.83 428.765 1845.26 428.765C1793.93 428.765 1744.2 413.008 1703.08 399.98C1672.48 390.283 1641.49 379.301 1610.99 367.337C1586.33 357.648 1562.14 347.34 1539.1 336.7C1487.48 312.875 1441.5 283.489 1397.04 255.072C1384.49 247.055 1371.52 238.765 1358.56 230.679C1334.74 215.831 1306.1 198.495 1274.16 182.478C1216.76 153.718 1152.66 139.453 1083.63 140.065C975.223 140.796 874.199 177.754 808.539 208.633C761.376 230.811 715.825 257.465 680.277 283.688C653.368 303.537 632.875 324.619 611.181 346.939C608.561 349.636 605.93 352.339 603.285 355.046C598.488 359.958 592.139 366.43 585.547 372.926C574.753 383.578 557.807 399.084 535.361 410.708C524.46 416.352 512.86 420.788 500.882 423.894C487.527 427.356 473.186 429.302 458.266 429.674C456.152 429.729 454.023 429.756 451.88 429.756Z" fill="#FFE492"/>
<path d="M458.769 460.403C437.287 460.403 413.969 457.698 387.738 452.177C360.58 446.462 333.73 438.427 311.05 431.319C304.081 429.131 297.127 426.912 290.4 424.766C271.596 418.767 253.833 413.099 237.085 408.471C176.94 391.851 117.187 375.625 59.3977 359.932C40.2825 354.741 20.5188 349.374 1.36328 344.161L2.08142 343.208C21.2369 348.421 41.0007 353.788 60.1159 358.979C117.905 374.672 177.665 390.9 237.814 407.523C254.606 412.163 272.391 417.836 291.217 423.843C297.94 425.99 304.895 428.207 311.856 430.395C358.895 445.131 413.456 460.729 465.701 459.261C529.847 457.416 565.876 425.389 590.102 397.694C596.313 390.599 602.318 383.475 606.854 378.062C609.184 375.284 611.5 372.508 613.812 369.739C634.594 344.83 654.223 321.305 680.757 298.712C715.269 269.329 760.875 238.917 809.167 213.08C876.42 177.253 980.364 133.552 1093.63 128.812C1165.67 125.717 1231.97 139 1290.69 168.295C1317.07 181.464 1343.15 196.653 1375.28 217.551C1391.52 228.111 1407.63 239.056 1423.21 249.638C1463.74 277.17 1505.65 305.64 1552.88 329.403C1575.75 340.919 1599.74 352.117 1624.17 362.688C1653.76 375.475 1684.68 387.64 1716.09 398.845C1764.34 415.952 1824.38 437.245 1884.82 431.218C1917.95 427.982 1942.99 417.779 1959.25 400.894C1992.22 366.723 1985.15 310.817 1979.98 269.998C1978.53 258.542 1977.16 247.722 1976.89 238.994C1976.29 219.596 1976.34 194.018 1982.12 168.185C1992.09 123.421 2016.55 88.4283 2054.81 64.1848C2068.22 55.6436 2083.61 48.2229 2100.52 42.1273C2124.59 33.4452 2151.74 27.605 2181.23 24.7719C2209.02 22.1039 2238.26 22.1457 2268.14 24.8974C2293.36 27.2704 2318.16 31.5719 2341.85 37.6784C2365.78 43.8466 2387.96 51.7054 2407.8 61.0369C2430.73 71.8191 2451.68 84.6684 2470.06 99.2303C2487.49 113.031 2502.75 128.475 2515.44 145.139C2539.26 176.425 2553.94 212.056 2557.92 248.18L2556.18 248.248C2547.62 170.426 2493.15 102.491 2406.73 61.8624C2367.55 43.4305 2318.23 30.6693 2267.88 25.932C2205.81 20.2195 2148.25 26.1301 2101.42 43.0255C2084.64 49.0704 2069.39 56.4317 2056.08 64.9047C2018.07 88.9875 1993.77 123.782 1983.85 168.326C1978.09 194.089 1978.04 219.616 1978.63 238.976C1978.91 247.674 1980.27 258.48 1981.72 269.921C1984.39 291.021 1987.42 314.938 1985.69 338.288C1983.67 365.477 1975.52 386.128 1960.76 401.421C1952.82 409.669 1942.78 416.405 1930.91 421.442C1918.05 426.903 1902.64 430.54 1885.11 432.253C1857.92 434.962 1828.66 432.528 1795.65 424.808C1766.96 418.096 1739.47 408.348 1715.21 399.75C1683.76 388.529 1652.79 376.347 1623.16 363.542C1598.69 352.956 1574.67 341.742 1551.76 330.211C1504.44 306.399 1462.48 277.898 1421.9 250.338C1406.33 239.758 1390.23 228.819 1374.01 218.268C1341.93 197.408 1315.89 182.248 1289.57 169.11C1231.21 139.982 1165.33 126.778 1093.75 129.853C980.969 134.575 877.369 178.142 810.317 213.861C762.121 239.646 716.61 269.993 682.172 299.315C655.71 321.844 636.111 345.337 615.362 370.208C613.05 372.979 610.734 375.755 608.404 378.533C603.864 383.951 597.855 391.081 591.637 398.182C567.198 426.124 530.807 458.438 465.778 460.307C463.466 460.37 461.125 460.403 458.769 460.403Z" fill="#FFE492"/>
<path d="M465.796 491.053C407.099 491.053 345.51 469.394 290.912 450.191C274.135 444.292 258.288 438.718 243.229 434.005L0 357.889L0.846411 356.913L244.075 433.029C259.175 437.754 275.04 443.334 291.839 449.242C348.548 469.187 412.825 491.792 473.205 489.833C538.765 487.709 573.302 452.985 596.067 422.974C603.512 413.158 610.701 403.17 617.655 393.511C636.675 367.095 656.34 339.778 682.512 314.355C703.294 294.168 729.111 272.998 757.17 253.135C787.952 231.344 820.91 211.351 855.121 193.714C892.842 174.27 931.197 158.184 969.116 145.908C1011.06 132.33 1052.38 123.465 1091.93 119.557C1171.18 111.732 1243.25 123.608 1306.14 154.86C1358.41 180.83 1402.83 212.943 1445.79 244C1483.19 271.032 1521.85 298.983 1565.64 322.876C1616.21 350.472 1670.95 375.94 1728.33 398.567C1776.68 417.633 1836.85 441.364 1898.86 436.03C1951.24 431.526 1981.52 410.472 1991.43 371.663C1999.87 338.651 1991.84 299.491 1985.4 268.027C1983.2 257.305 1981.13 247.176 1980.11 238.963C1974.49 193.686 1978.07 156.309 1991.06 124.7C1999.16 104.978 2011.12 87.3979 2026.6 72.4485C2043.89 55.7491 2066.09 41.8278 2092.59 31.072C2115.5 21.7669 2141.33 15.0087 2169.36 10.9847C2196.04 7.1543 2224.12 5.87092 2252.84 7.16972C2309.32 9.72328 2364.57 22.1741 2408.41 42.2262C2431.84 52.9446 2453.12 65.8401 2471.65 80.5517C2489.21 94.495 2504.42 110.158 2516.86 127.108C2540.3 159.039 2553.76 195.376 2555.79 232.189L2553.96 232.227C2549.64 153.832 2494.81 83.1317 2407.3 43.1045C2314.36 0.596484 2182.43 -4.08138 2093.6 31.9855C2005.61 67.7134 1969.08 135.389 1981.93 238.882C1982.94 247.068 1985.02 257.184 1987.21 267.893C1993.67 299.425 2001.71 338.669 1993.24 371.83C1988.62 389.892 1979.35 404.408 1965.67 414.976C1957.97 420.918 1948.7 425.774 1938.1 429.406C1926.82 433.272 1913.7 435.867 1899.12 437.122C1893.16 437.635 1887.09 437.892 1880.93 437.892C1858.45 437.892 1834.52 434.478 1808.29 427.561C1778.74 419.769 1750.23 408.524 1727.32 399.49C1669.86 376.829 1615.05 351.329 1564.4 323.693C1520.51 299.749 1481.81 271.765 1444.37 244.704C1401.47 213.687 1357.1 181.613 1304.96 155.71C1242.49 124.671 1170.92 112.872 1092.22 120.645C933.032 136.367 769.053 232.381 684.058 314.936C657.956 340.289 638.317 367.568 619.322 393.949C612.364 403.613 605.172 413.607 597.719 423.432C582.605 443.356 567.678 457.623 550.743 468.326C540.172 475.005 528.704 480.27 516.657 483.975C503.261 488.094 488.671 490.436 473.289 490.936C470.805 491.013 468.302 491.053 465.796 491.053Z" fill="#FFE492"/>
</g>
</svg>
